<?xml version="1.0" encoding="UTF-8"?>
<svg width="81px" height="22px" viewBox="0 0 81 22" version="1.1" xmlns="http://www.w3.org/2000/svg" xmlns:xlink="http://www.w3.org/1999/xlink">
    <!-- Generator: Sketch 48.2 (47327) - http://www.bohemiancoding.com/sketch -->
    <title>logo</title>
    <desc>Created with Sketch.</desc>
    <defs>
        <linearGradient x1="44.2613861%" y1="105.558571%" x2="65.3316832%" y2="5.52571429%" id="linearGradient-1">
            <stop stop-color="#82CFD0" offset="0%"></stop>
            <stop stop-color="#49C1C1" offset="26.68%"></stop>
            <stop stop-color="#00AAA6" offset="76.92%"></stop>
            <stop stop-color="#008D8A" offset="100%"></stop>
        </linearGradient>
        <linearGradient x1="72.2531956%" y1="50.7942197%" x2="2.04015607%" y2="48.5895954%" id="linearGradient-2">
            <stop stop-color="#82CFD0" offset="0%"></stop>
            <stop stop-color="#49C1C1" offset="26.68%"></stop>
            <stop stop-color="#00AAA6" offset="76.92%"></stop>
            <stop stop-color="#008D8A" offset="100%"></stop>
        </linearGradient>
        <linearGradient x1="32.626%" y1="28.0265957%" x2="81.379%" y2="82.3446809%" id="linearGradient-3">
            <stop stop-color="#82CFD0" offset="0%"></stop>
            <stop stop-color="#49C1C1" offset="26.68%"></stop>
            <stop stop-color="#00AAA6" offset="76.92%"></stop>
            <stop stop-color="#008D8A" offset="100%"></stop>
        </linearGradient>
    </defs>
    <g id="Page-1" stroke="none" stroke-width="1" fill="none" fill-rule="evenodd">
        <g id="logo" fill-rule="nonzero">
            <g id="Group" transform="translate(25.000000, 6.000000)" fill="#6B767C">
                <path d="M55.2,14.4 L52,9.5 L54.9,4.9 C54.9,4.9 54.9,4.8 54.9,4.8 C54.9,4.8 54.9,4.8 54.8,4.8 L52.7,4.8 C52.3,4.8 51.9,5 51.7,5.4 C51.7,5.4 51.7,5.4 51.7,5.4 L50.3,7.8 L48.6,4.8 C48.6,4.8 48.6,4.8 48.5,4.8 L45.8,4.8 C45.8,4.8 45.7,4.8 45.7,4.8 C45.7,4.8 45.7,4.9 45.7,4.9 L48.7,9.5 L45.5,14.4 C45.5,14.4 45.5,14.5 45.5,14.5 C45.5,14.5 45.5,14.5 45.6,14.5 L47.8,14.5 C48.2,14.5 48.5,14.3 48.7,14 L50.3,11.2 L52.2,14.4 C52.2,14.4 52.2,14.4 52.3,14.4 L55.1,14.4 C55.2,14.6 55.2,14.5 55.2,14.4 C55.3,14.5 55.3,14.4 55.2,14.4 Z" id="Shape"></path>
                <path d="M27.8,5.4 C27.1,4.8 26,4.5 24.6,4.5 C23,4.5 21.8,4.8 20.8,5.2 C20.8,5.2 20.7,5.2 20.7,5.3 L20.7,14.5 C20.7,14.5 20.7,14.5 20.7,14.6 C20.7,14.6 20.7,14.6 20.8,14.6 L23.2,14.6 C23.2,14.6 23.2,14.6 23.3,14.6 C23.3,14.6 23.3,14.6 23.3,14.5 L23.3,6.9 C23.6,6.8 24.1,6.7 24.6,6.7 C25.7,6.7 26.2,7.2 26.2,8.2 L26.2,13.5 C26.2,14.1 26.7,14.6 27.3,14.6 L28.7,14.6 C28.7,14.6 28.7,14.6 28.8,14.6 C28.8,14.6 28.8,14.6 28.8,14.5 L28.8,7.9 C28.9,6.8 28.5,6 27.8,5.4 Z" id="Shape"></path>
                <path d="M15.1,4.5 C13.7,4.5 12.6,5 11.8,5.9 C11,6.8 10.6,8.1 10.6,9.6 C10.6,11.1 11,12.4 11.8,13.3 C12.6,14.2 13.9,14.7 15.5,14.7 C16.9,14.7 18.2,14.4 19.1,14 C19.1,14 19.2,13.9 19.1,13.9 L18.8,13 C18.6,12.6 18.2,12.3 17.8,12.3 C17.7,12.3 17.6,12.3 17.5,12.3 C16.9,12.5 16.3,12.6 15.7,12.6 C14.4,12.6 13.4,12 13.2,10.7 L19.2,9.9 C19.2,9.9 19.3,9.9 19.3,9.8 C19.3,9.5 19.3,9.2 19.3,9 C19.3,7.7 18.9,6.5 18.2,5.8 C17.5,5 16.4,4.5 15.1,4.5 Z M13,9 C13.1,7.3 13.9,6.5 15.1,6.5 C16.1,6.5 16.8,7.1 16.8,8.5 L13,9 Z" id="Shape"></path>
                <path d="M40.9,4.5 C39.5,4.5 38.4,5 37.6,5.9 C36.8,6.8 36.4,8.1 36.4,9.6 C36.4,11.1 36.8,12.4 37.6,13.3 C38.4,14.2 39.7,14.7 41.3,14.7 C42.7,14.7 44,14.4 44.9,14 C44.9,14 45,13.9 44.9,13.9 L44.6,13 C44.4,12.6 44,12.3 43.6,12.3 C43.5,12.3 43.4,12.3 43.3,12.3 C42.7,12.5 42.1,12.6 41.5,12.6 C40.2,12.6 39.2,12 39,10.7 L45,9.9 C45,9.9 45.1,9.9 45.1,9.8 C45.1,9.5 45.1,9.2 45.1,9 C45.1,7.7 44.7,6.5 44,5.8 C43.3,5 42.2,4.5 40.9,4.5 Z M38.7,9 C38.8,7.3 39.6,6.5 40.8,6.5 C41.8,6.5 42.5,7.1 42.5,8.5 L38.7,9 Z" id="Shape"></path>
                <path d="M36.1,4.7 L33.1,4.7 L33.1,1.1 C33.1,1.1 33.1,1 33.1,1 C33.1,1 33,1 33,1 L31.4,1.5 C30.9,1.6 30.6,2.1 30.6,2.6 L30.6,11.5 C30.6,12.5 30.8,13.3 31.3,13.8 C31.8,14.3 32.5,14.6 33.4,14.6 C33.4,14.6 33.4,14.6 33.4,14.6 C34,14.6 34.5,14.5 34.9,14.3 C35.5,14.1 35.6,14 36.1,13.8 C36.1,13.8 36.1,13.8 36.2,13.7 C36.2,13.7 36.2,13.6 36.2,13.6 L35.6,12.6 L35.5,12.6 L35.6,12.5 C35.4,12.2 35.1,12 34.7,12 C34.6,12 34.6,12 34.5,12 C34.4,12 34.3,12 34.2,12 C33.6,12 33.2,11.8 33.2,11 L33.2,6.3 L34.5,6.3 C34.9,6.3 35.2,6.1 35.4,5.8 L36.2,4.5 C36.2,4.8 36.2,4.8 36.1,4.7 C36.1,4.7 36.1,4.7 36.1,4.7 Z" id="Shape"></path>
                <path d="M9.1,0.5 L7.4,1 L7.4,1.1 L7.4,1 C7,1.1 6.6,1.5 6.6,2 L6.6,4.8 C6.3,4.7 5.8,4.6 5.3,4.6 C3.8,4.6 2.7,5.1 1.9,6 C1.1,6.9 0.7,8.2 0.7,9.7 C0.7,11.3 1.1,12.6 1.9,13.4 C2.7,14.3 3.9,14.7 5.5,14.7 C7,14.7 8.3,14.4 9,14 C9,14 9,14 9,13.9 L9,0.5 C9.3,0.6 9.3,0.5 9.1,0.5 C9.2,0.5 9.2,0.5 9.1,0.5 Z M6.7,12.5 C6.5,12.6 6.1,12.7 5.7,12.7 C4.3,12.7 3.5,11.6 3.5,9.7 C3.5,7.9 4.3,6.7 5.7,6.7 C5.7,6.7 5.7,6.7 5.7,6.7 C6.1,6.7 6.5,6.8 6.7,6.8 L6.7,12.5 Z" id="Shape"></path>
            </g>
            <g id="Group">
                <path d="M11.7,11.5 C11.5,11.4 11.3,11.4 11.2,11.4 C11.2,11.4 10.3,11.4 10.3,11.4 L10.3,14.7 C10.3,14.7 11.1,14.7 11.2,14.7 C11.4,14.7 11.6,14.6 11.8,14.6 C12.3,14.4 12.7,13.8 12.7,13.1 C12.6,12.3 12.2,11.8 11.7,11.5 Z" id="Shape" fill="#00AAA6"></path>
                <path d="M21.7,18.5 C21.5,18.3 21.3,18.2 21.2,18 C21.1,17.9 21,17.9 20.9,17.8 C18.4,15.9 16,14.7 14.5,14.1 C14.4,14.1 14.4,14.1 14.3,14.1 C14.1,14.1 13.9,14.2 13.8,14.4 C13.6,14.9 13.2,15.3 12.8,15.5 C12.4,15.8 11.9,16 11.3,16.1 C11.1,16.1 10.4,16.2 9.7,16.5 C7.2,17.9 4.5,19.1 1.7,20.1 C4.7,20.7 7.8,21.1 11,21.1 C14.5,21.1 17.8,20.7 21.1,20 C21.6,19.9 21.9,19.5 21.9,19 C21.9,19 21.9,19 21.9,19 C21.9,18.8 21.7,18.6 21.7,18.5 Z" id="Shape" fill="url(#linearGradient-1)"></path>
                <path d="M11.8,0.9 C11.5,0.6 11.4,0.5 11.1,0.5 C11,0.5 10.7,0.6 10.6,1 C10.5,1.2 10.4,2.3 10.3,2.4 C9.9,5.1 10,7.5 10.1,9.2 C10.1,9.5 10.4,9.7 10.7,9.7 C11.3,9.7 11.9,9.8 12.4,10.1 C13.1,10.5 13.6,11.1 13.8,11.7 C14,12.2 14,12.2 14.4,12.5 C17,14.1 19.4,15.9 21.6,17.8 C19.6,11.5 16.2,5.7 11.8,0.9 Z" id="Shape" fill="url(#linearGradient-2)"></path>
                <path d="M8.5,15.8 C8.7,15.6 8.8,15.3 8.8,15.1 C8.8,15.1 8.7,13.7 8.7,12.9 C8.7,8.9 9.1,4.9 10,1 C5.5,5.9 2.2,11.7 0.1,18.2 L0.1,18.4 C0.1,18.5 0,18.6 0,18.8 C0,19.2 0.2,19.5 0.4,19.7 C0.5,19.8 0.7,19.8 0.8,19.8 C0.9,19.8 1,19.8 1,19.8 C1.2,19.7 1.5,19.6 1.7,19.5 C1.8,19.5 1.9,19.4 2,19.4 C5.1,18.2 8.1,16.3 8.5,15.8 Z" id="Shape" fill="url(#linearGradient-3)"></path>
            </g>
        </g>
    </g>
</svg>