<?xml version="1.0" encoding="utf-8"?>
<!-- Generator: Adobe Illustrator 19.2.1, SVG Export Plug-In . SVG Version: 6.00 Build 0)  -->
<svg version="1.1" id="Слой_1" xmlns="http://www.w3.org/2000/svg" xmlns:xlink="http://www.w3.org/1999/xlink" x="0px" y="0px"
	 viewBox="0 0 339.8 64.8" style="enable-background:new 0 0 339.8 64.8;" xml:space="preserve">
<style type="text/css">
	.st0{fill:#6B7777;}
	.st1{fill:#AB1917;}
</style>
<g>
	<path class="st0" d="M27.4,9.4c0,0.1,0.1,0.1,0.1,0.1c0.3,0.7,0.9,1.3,0.9,1.3l0,0l0,0c0,0,0.1-0.1,0.3-0.2
		c0.1-0.1,0.1-0.1,0.2-0.1c0.2-0.1,0.4-0.2,0.7-0.3c0.7-0.3,1.7-0.3,1.7-0.3s-0.9-1.2-1.1-3c-0.1-1-0.1-1.6-0.1-1.6
		c-0.1,0-0.1,0-0.2,0c-0.7,0-1.3,0.2-1.8,0.6c0,0,0,0-0.1,0.1c-0.6,0.5-1,1.3-1,2.2c0,0.2,0.1,0.5,0.1,0.7
		C27.2,9.1,27.3,9.3,27.4,9.4"/>
	<path class="st0" d="M32.3,9.7c0.2,0.2,0.3,0.3,0.5,0.3l0,0h0.1l0,0c0.2,0,0.3-0.1,0.5-0.3c0.4-0.4,0.8-1,1.1-1.8
		c0.4-1.1,0.3-2.1-0.2-2.6c-0.2-0.2-0.5-0.3-0.8-0.4c-0.1,0-0.2,0-0.3,0c0.6-0.1,0.9-0.6,0.9-1.2c0-0.7-0.6-1.3-1.3-1.3
		c-0.7,0-1.3,0.6-1.3,1.3c0,0.6,0.4,1.1,0.9,1.2c-0.1,0-0.2,0-0.3,0c-0.3,0.1-0.6,0.2-0.8,0.4c-0.5,0.4-0.6,1.4-0.2,2.6
		C31.5,8.7,31.9,9.3,32.3,9.7"/>
	<path class="st0" d="M44.4,18.1c0.3,0.4,0.3,1.1,0.3,1.1s0.6,0.1,0.9,0.4l0.1-0.1c0.4-0.5,1.1-1.3,1.3-2.4c0.2-0.9,0.1-2.2-0.1-2.7
		v-0.1c0.2-0.2,0.5-0.7,1.3-0.7c0.3,0,0.6,0.1,0.8,0.2c0.4,0.2,0.6,0.4,0.6,0.4s-0.7,1.3-1.1,2c-0.2,0.3-0.3,0.6-0.7,1.4
		c-0.3,0.7-0.4,1.2-0.4,1.7c0.1,0.4,0.3,1.3,0.4,2.1c0.2,1.6-0.1,2.4-0.1,2.4l0,0l0,0c0,0,1.9-1.3,3.1-4.1l0,0l0,0
		c-0.2-0.1-0.4-0.1-0.6-0.2s-0.3-0.2-0.4-0.3c-1.1-0.8-0.8-1.7-0.5-2.1c0.1-0.1,0.2-0.2,0.3-0.3c0.3-0.3,0.6-0.6,0.9-0.9
		c0.4-0.4,0.5-0.9,0.6-1.3c0-0.1,0.1-0.3,0.1-0.4c0-1.2-0.6-2-1.3-2.4c-0.2-0.1-0.5-0.2-0.8-0.3c-0.8-0.2-1.8,0.2-2.6,0.7
		c-0.3,0.2-0.7,0.6-0.9,0.9c-0.2,0.8,0.1,1,0.3,1.8v0.1C46.3,16.8,46.1,17.7,44.4,18.1"/>
	<path class="st0" d="M36.1,16.4c0.2,0.4,0.6,0.9,0.6,0.9l0,0l0.1,0.1c0,0,0.2-0.2,0.8-0.4c0.4-0.2,1.1-0.2,1.1-0.2s-0.6-0.8-0.7-2
		c-0.1-0.7-0.1-1.1-0.1-1.1l0,0l0,0c-0.3-0.1-0.6,0-0.9,0.2c-0.2,0.1-0.4,0.2-0.5,0.4C36.2,14.4,36,14.7,36,15
		c-0.1,0.3-0.2,0.6-0.1,0.9C36,15.9,36.1,16.2,36.1,16.4"/>
	<path class="st0" d="M38.8,15.2c0.3,0.7,0.7,1.3,1,1.4c0.1,0,0.1,0.1,0.2,0.1l0,0c0.3-0.1,0.8-0.7,1-1.6c0.2-0.8,0.1-1.4-0.3-1.7
		c-0.1-0.1-0.2-0.1-0.3-0.2c-0.1-0.1-0.2-0.1-0.3-0.1h-0.1c0.3-0.1,0.4-0.4,0.4-0.8s-0.2-0.6-0.5-0.7c-0.1-0.1-0.2-0.1-0.3-0.1
		c-0.4,0-0.8,0.4-0.7,0.9c0,0.3,0.2,0.7,0.5,0.8l0,0c-0.2,0.1-0.4,0.2-0.6,0.3C38.6,13.8,38.5,14.4,38.8,15.2"/>
	<path class="st0" d="M41.1,16.7c0,0,1,0,2,0.4h0.1c0.1-0.2,0.3-0.4,0.4-0.7c0.1-0.2,0.2-0.6,0.2-0.6c0.1-0.3,0-0.7-0.1-0.9
		c-0.1-0.3-0.2-0.5-0.5-0.8c-0.2-0.1-0.3-0.3-0.5-0.3l0,0l0,0c-0.3-0.1-0.6-0.2-0.9-0.2c0,0,0.1,0.4-0.1,1.1
		C41.6,15.8,41.1,16.7,41.1,16.7L41.1,16.7L41.1,16.7z"/>
	<path class="st0" d="M34.5,10c0,0,0.9,0.1,1.7,0.3c0.3,0.1,0.6,0.2,0.7,0.3c0.1,0.1,0.2,0.1,0.2,0.1c0.2,0.1,0.3,0.2,0.3,0.2l0,0
		l0,0c0,0,0.6-0.7,0.9-1.3c0-0.1,0.1-0.1,0.1-0.1c0.1-0.2,0.1-0.3,0.2-0.5c0.1-0.2,0.1-0.4,0.1-0.7c0-0.9-0.4-1.7-1-2.2
		c0,0,0,0-0.1-0.1c-0.5-0.4-1.1-0.6-1.8-0.6c-0.1,0-0.1,0-0.2,0c0,0.1,0.1,0.6-0.1,1.6C35.4,8.8,34.5,10,34.5,10"/>
	<path class="st0" d="M35.1,12.7c0,0,0.1,0.6,0.2,0.8h0.1c0.4-0.2,1.2-0.4,1.2-0.7v-0.7v-0.2c0-0.2-0.2-0.3-0.4-0.4
		c-0.6-0.3-1.7-0.4-2.9-0.5h-0.7c-1.3,0-2.5,0.2-3,0.5c-0.3,0.1-0.4,0.3-0.4,0.4v0.2v0.7c0,0.3,0.8,0.5,1.3,0.7h0.1
		c0.1-0.2,0.2-0.8,0.2-0.8l-0.1-0.1c-0.1-0.1,0.1-0.2,0.2-0.3c0.2-0.1,0.4-0.1,0.6-0.2c0.1,0.5,0.2,1.2,0.1,1.9
		c-0.1,1.3-0.3,3-1.1,4.1c0.3,0.3,0.6,0.7,0.9,1.1c0.8-1.6,0.9-3.2,1-5c0.1-0.8,0-1.7,0-2.3c0.1,0,0.3-0.1,0.6-0.1s0.5,0.1,0.6,0.1
		c0,0.6-0.1,1.5,0,2.3c0.1,1.8,0.2,3.5,1.1,5.1c0.3-0.4,0.6-0.8,0.9-1.1l0.1-0.1c-0.8-1.1-1.1-2.8-1.1-4.1c-0.1-0.7,0-1.4,0.1-1.9
		c0.2,0,0.5,0.1,0.6,0.2c0.2,0.1,0.2,0.2,0.2,0.3C35.2,12.7,35.1,12.7,35.1,12.7"/>
	<path class="st0" d="M46,25.1L46,25.1L46,25.1L46,25.1L46,25.1c-0.1,0-0.2,0-0.2,0c-0.4,0.1-0.9,0-1.3-0.2
		c-0.2-0.1-0.4-0.2-0.6-0.3c-0.1-0.1-0.5-0.4-0.6-0.5c-0.3-0.3-1-0.8-1.6-0.8c-0.7-0.1-1.2,0.2-1.8,0.4c-0.1,0-0.1,0.1-0.1,0.1
		c0,0.1,0.1,0.1,0.1,0.2H40c0.6,0.1,1.1,0.1,1.5,0.3c0.3,0.1,0.7,0.2,1,0.4c0.4,0.3,0.7,0.6,0.9,0.7c0.3,0.2,0.5,0.3,0.8,0.4
		c0.3,0.1,0.7,0.1,1-0.1c0,0,0,0,0.1,0c0.1,0,0.2-0.1,0.2-0.1c0.1-0.1,0.2-0.1,0.3-0.2l0,0c0.1-0.1,0.1-0.1,0.2-0.1l0,0
		c0.1-0.1,0.1-0.1,0.1-0.1C46.1,25.2,46.1,25.1,46,25.1"/>
	<path class="st0" d="M43.9,20.2c0.1,0.1,0.2,0.2,0.3,0.3c0.4,0.2,0.6,0.6-0.1,0.7c-0.4,0.1-0.9-0.2-2.5,0.2
		c-0.9,0.3-2.1,1.2-2.5,1.7c-0.1,0.1-0.2,0.3-0.3,0.4c-0.4,0.6-0.4,1.3,0.1,1.8c0.2,0.3,0.5,0.5,0.6,0.6c1.4,0.9,2.7,0.2,2.9,0
		c0.1-0.1,0.1-0.2,0.1-0.2l0,0l0,0l0,0c0,0-0.4,0.2-1.1,0.2c-0.3,0-0.7-0.1-1-0.2c-0.2-0.1-0.7-0.4-1.1-0.8c-0.2-0.3-0.2-0.7,0.1-1
		c0.2-0.3,0.5-0.6,0.8-0.7c0.6-0.4,1.3-0.7,2.1-0.7h0.1c0.4,0,0.8,0.1,1.2,0.2c0.2,0.1,0.4,0.1,0.6,0.2c0.5,0.3,0.9,0.7,1.3,1.1l0,0
		l0,0c0.1-0.2,0.3-0.6,0.4-1.1c0-0.1,0.1-0.2,0.1-0.3c0.2-0.8,0.1-2.6-1.6-2.6c-0.1,0-0.1,0-0.1,0C44,20,43.9,20.1,43.9,20.2"/>
	<path class="st0" d="M15.2,15.9c0.3,0.3,0.6,0.7,0.9,0.9c0.1,0.1,0.2,0.2,0.3,0.3c0.3,0.4,0.6,1.3-0.5,2.1
		c-0.2,0.1-0.3,0.2-0.4,0.3c-0.2,0.1-0.3,0.2-0.6,0.2l0,0l0,0c1.2,2.8,3.1,4.1,3.1,4.1l0,0l0,0c0,0-0.3-0.8-0.1-2.4
		c0.1-0.8,0.3-1.7,0.4-2.1c0.1-0.5-0.1-1-0.4-1.7c-0.4-0.9-0.6-1.1-0.7-1.4c-0.4-0.6-1.1-2-1.1-2s0.2-0.2,0.6-0.4
		c0.2-0.1,0.5-0.2,0.8-0.2c0.8,0,1.2,0.5,1.3,0.7v0.1c-0.2,0.4-0.3,1.7-0.1,2.7c0.2,1.2,0.9,2,1.3,2.4l0.1,0.1
		c0.3-0.3,0.9-0.4,0.9-0.4s0-0.6,0.3-1.1c-1.7-0.3-1.9-1.2-1.4-3.1v-0.1c0.2-0.8,0.5-1.1,0.3-1.8c-0.1-0.3-0.6-0.7-0.9-0.9
		c-0.7-0.5-1.7-0.8-2.6-0.7c-0.3,0.1-0.5,0.1-0.8,0.3c-0.7,0.4-1.3,1.2-1.3,2.4c0,0.2,0,0.3,0.1,0.4C14.7,15,14.9,15.5,15.2,15.9"/>
	<path class="st0" d="M26.9,16.7c0,0,0.6,0.1,1.1,0.2c0.6,0.2,0.8,0.4,0.8,0.4l0.1-0.1l0,0c0,0,0.4-0.4,0.6-0.9
		c0.1-0.2,0.2-0.6,0.2-0.6c0.1-0.3,0-0.7-0.1-0.9s-0.2-0.5-0.5-0.8c-0.2-0.1-0.3-0.3-0.5-0.3c-0.3-0.1-0.6-0.2-0.9-0.2l0,0l0,0
		c0,0,0.1,0.3-0.1,1.1C27.5,15.9,26.9,16.7,26.9,16.7"/>
	<path class="st0" d="M25.7,16.7L25.7,16.7c0.1,0,0.1,0,0.2-0.1c0.3-0.1,0.7-0.7,1-1.4c0.3-0.8,0.2-1.4-0.1-1.7
		c-0.2-0.2-0.3-0.2-0.6-0.3c0.3-0.1,0.5-0.4,0.5-0.8c0-0.4-0.3-0.8-0.7-0.9c-0.1,0-0.2,0-0.3,0.1c-0.3,0.1-0.5,0.4-0.5,0.7
		c0,0.3,0.2,0.7,0.4,0.8h-0.1c-0.1,0-0.2,0.1-0.3,0.1c-0.1,0.1-0.2,0.1-0.3,0.2c-0.3,0.3-0.5,0.9-0.3,1.7
		C24.9,16,25.3,16.6,25.7,16.7"/>
	<path class="st0" d="M22,16.3c0.1,0.3,0.3,0.6,0.4,0.7h0.1c1-0.4,2-0.4,2-0.4l0,0l0,0c0,0-0.6-0.8-0.7-2c-0.1-0.7-0.1-1.1-0.1-1.1
		c-0.3-0.1-0.6,0-0.9,0.2l0,0l0,0c-0.2,0.1-0.4,0.2-0.5,0.3c-0.3,0.2-0.4,0.5-0.5,0.8c-0.1,0.3-0.2,0.6-0.1,0.9
		C21.8,15.8,21.9,16.2,22,16.3"/>
	<path class="st0" d="M25.5,24L25.5,24c0.1,0,0.2-0.1,0.2-0.2c0-0.1-0.1-0.1-0.1-0.1c-0.6-0.2-1-0.5-1.8-0.4
		c-0.7,0.1-1.3,0.6-1.6,0.8c-0.1,0.1-0.6,0.5-0.6,0.5c-0.2,0.1-0.3,0.2-0.6,0.3c-0.4,0.2-0.8,0.2-1.3,0.2c-0.1,0-0.1,0-0.1,0l0,0
		c0,0,0,0-0.1,0l0,0l0,0c-0.1,0-0.1,0.1-0.1,0.1c0,0.1,0,0.1,0.1,0.1l0,0c0.1,0.1,0.1,0.1,0.2,0.1l0,0c0.1,0.1,0.2,0.1,0.3,0.2
		c0.1,0.1,0.2,0.1,0.2,0.1h0.1c0.3,0.1,0.7,0.1,1,0.1c0.3-0.1,0.6-0.2,0.8-0.4c0.2-0.1,0.5-0.4,0.9-0.7c0.3-0.2,0.6-0.3,1-0.4
		C24.5,24.1,25,24,25.5,24"/>
	<path class="st0" d="M19.7,22.5c0,0.1,0.1,0.2,0.1,0.3c0.1,0.4,0.3,0.8,0.4,1.1l0,0l0,0c0.3-0.4,0.8-0.8,1.3-1.1
		c0.2-0.1,0.3-0.2,0.6-0.2c0.4-0.1,0.8-0.2,1.2-0.2h0.1c0.8,0,1.5,0.3,2.1,0.7c0.3,0.2,0.6,0.4,0.8,0.7s0.3,0.7,0.1,1
		c-0.3,0.5-0.8,0.8-1.1,0.8c-0.3,0.1-0.7,0.2-1,0.2c-0.6,0-1.1-0.2-1.1-0.2l0,0l0,0l0,0c0,0.1,0,0.1,0.1,0.2c0.2,0.2,1.4,0.9,2.9,0
		c0.1-0.1,0.3-0.3,0.6-0.6c0.4-0.5,0.4-1.2,0.1-1.8c-0.1-0.2-0.2-0.3-0.3-0.4c-0.4-0.4-1.5-1.4-2.5-1.7c-1.6-0.4-2.1-0.2-2.5-0.2
		c-0.6-0.1-0.4-0.4-0.1-0.7c0.1-0.1,0.2-0.2,0.3-0.3c0.1-0.1,0-0.2-0.2-0.3c-0.1,0-0.1,0-0.1,0C19.6,19.9,19.5,21.7,19.7,22.5"/>
	<path class="st0" d="M41,49.5L41,49.5C41,49.5,41,49.5,41,49.5L41,49.5"/>
	<path class="st0" d="M33.8,31.7c0.1,0.1,0.3,0.3,0.3,0.7c0,0.1,0.9-0.9,0.9-0.9v-0.9l-0.9,0.4L33.8,31.7z"/>
	<path class="st0" d="M28.1,56.1c0.4-0.1,0.8-0.2,1.2-0.4c0.2-0.1,0.4-0.2,0.6-0.3c0.2-0.1,0.4-0.2,0.6-0.3c0.2-0.1,0.4-0.3,0.5-0.5
		c0.1-0.1,0.2-0.2,0.2-0.3c0-0.1,0.1-0.1,0.1-0.2l0.1-0.2l0,0c0-0.1-0.1-0.2-0.2-0.3c-0.1,0-0.1,0-0.1,0c-0.1,0-0.1,0.1-0.1,0.1
		c-0.1,0.2-0.3,0.3-0.4,0.3c-0.2,0.1-0.3,0.1-0.4,0.2c-0.3,0.1-0.7,0.2-1.1,0.2s-0.8,0.1-1.2,0.1c-0.4,0.1-0.8,0.1-1.2,0.1l-1.2,0.1
		c-0.4,0-0.8,0.1-1.3,0.2c-0.2,0.1-0.4,0.1-0.6,0.2c-0.1,0.1-0.2,0.1-0.2,0.1c-0.3,0.2-0.6,0.4-0.7,0.8c-0.2,0.3-0.2,0.7-0.1,0.9
		c0.1,0.3,0.2,0.5,0.4,0.7c0.1,0.1,0.2,0.1,0.3,0.1c0.1,0,0.1-0.1,0.1-0.1c0.3-0.6,1.1-0.8,1.2-0.9c0.6-0.2,1.4-0.2,2.3-0.3
		C27.2,56.3,27.7,56.2,28.1,56.1"/>
	<path class="st0" d="M24.3,53.7c0,0.1,0.1,0.2,0.2,0.2c0.1,0,0.1,0,0.1-0.1l0,0l0,0l0.1-0.1c0.1-0.1,0.2-0.1,0.3-0.2
		c0.3-0.1,0.6-0.2,0.9-0.2c0.4,0,0.8,0.1,1.3,0.1c0.5,0.1,1.1,0.1,1.7,0.1c0.3,0,0.6-0.1,0.9-0.2c0.2-0.1,0.3-0.1,0.4-0.2l0,0l0,0
		c0.1-0.1,0.3-0.2,0.4-0.4c0.1-0.1,0-0.2-0.1-0.2c0,0,0,0-0.1,0c0,0-0.6-0.1-0.8-0.2l-0.7-0.2c-0.5-0.1-0.9-0.2-1.5-0.3
		c-0.6-0.1-1.2-0.1-1.8,0.2c-0.1,0.1-0.2,0.1-0.2,0.1C24.8,52.6,24.3,53.1,24.3,53.7"/>
	<path class="st0" d="M25.1,51.8c0,0,0.3-0.1,0.5-0.2l0,0c0,0-2-0.7-0.8-2v-0.1l0,0c-0.2,0-0.4,0-0.6,0.1s-0.3,0.2-0.4,0.3
		c-0.6,0.7,0.2,1.4,0.2,1.4c-0.1,0-0.4-0.1-0.5-0.1c-0.5-0.3-1.3-1.1-0.1-2.8c-0.1,0-0.1,0-0.1,0c-0.2,0-0.3,0-0.4,0.1
		c-0.1,0.1-0.2,0.1-0.3,0.1c-0.6,0.3-0.9,0.8-0.9,1.4c0,0.2,0.1,0.5,0.2,0.7c0.1,0.2,0.2,0.3,0.3,0.4c-0.1,0-0.4-0.1-0.5-0.1
		c-0.5-0.6-1.1-1.7,0-3c-0.1,0-0.1,0-0.1,0c-0.2,0-0.3,0-0.4,0.1c-0.1,0.1-0.2,0.1-0.3,0.1c-0.6,0.3-0.9,1-0.9,1.6
		c0,0.2,0.1,0.7,0.2,0.9C20.8,52.5,24.2,52,25.1,51.8"/>
	<path class="st0" d="M42.5,55.2c-0.1-0.1-0.2-0.1-0.2-0.1c-0.2-0.1-0.4-0.2-0.6-0.2c-0.5-0.1-0.9-0.1-1.3-0.2l-1.2-0.1
		c-0.4,0-0.8-0.1-1.2-0.1c-0.4-0.1-0.8-0.1-1.2-0.1c-0.4-0.1-0.8-0.1-1.1-0.2c-0.2-0.1-0.3-0.1-0.4-0.2c-0.2-0.1-0.3-0.2-0.4-0.3
		c0-0.1-0.1-0.1-0.1-0.1s-0.1,0-0.1,0c-0.1,0.1-0.2,0.2-0.2,0.3l0,0l0.1,0.2c0,0.1,0.1,0.1,0.1,0.2c0.1,0.1,0.1,0.2,0.2,0.3
		c0.2,0.2,0.3,0.4,0.5,0.5c0.2,0.1,0.4,0.3,0.6,0.3c0.2,0.1,0.4,0.2,0.6,0.3c0.4,0.2,0.8,0.3,1.2,0.4c0.4,0.1,0.8,0.2,1.3,0.3
		c0.8,0.1,1.7,0.2,2.3,0.3c0.2,0.1,0.9,0.3,1.2,0.9c0,0,0.1,0.1,0.1,0.1c0.1,0.1,0.2,0,0.3-0.1c0.2-0.2,0.3-0.4,0.4-0.7
		c0.1-0.3,0.1-0.6-0.1-0.9C43,55.6,42.8,55.3,42.5,55.2"/>
	<path class="st0" d="M35.6,53.4L35.6,53.4L35.6,53.4c0.2,0.1,0.3,0.1,0.4,0.2c0.3,0.1,0.6,0.1,0.8,0.2c0.6,0.1,1.1,0,1.7-0.1
		c0.5-0.1,0.9-0.1,1.3-0.1c0.3,0,0.6,0.1,0.9,0.2c0.1,0.1,0.2,0.1,0.3,0.2l0.1,0.1l0,0l0,0c0.1,0,0.1,0.1,0.1,0.1
		c0.1,0,0.2-0.1,0.2-0.2c-0.1-0.6-0.5-1.1-1.1-1.4c-0.1-0.1-0.2-0.1-0.2-0.1c-0.6-0.2-1.3-0.2-1.8-0.2c-0.6,0.1-1,0.2-1.5,0.3
		L36,52.6c-0.2,0.1-0.8,0.2-0.8,0.2s0,0-0.1,0c-0.1,0.1-0.1,0.1-0.1,0.2C35.3,53.2,35.5,53.3,35.6,53.4"/>
	<path class="st0" d="M45,48.3c-0.1-0.1-0.2-0.1-0.3-0.1c-0.2-0.1-0.3-0.1-0.4-0.1c-0.1,0-0.1,0-0.1,0c1.1,1.3,0.6,2.4,0,3
		c-0.1,0-0.4,0.1-0.5,0.1c0.1-0.1,0.2-0.3,0.3-0.4c0.1-0.2,0.2-0.4,0.2-0.7c0-0.6-0.4-1.1-0.9-1.4c-0.1-0.1-0.2-0.1-0.3-0.1
		c-0.2-0.1-0.3-0.1-0.4-0.1c-0.1,0-0.1,0-0.1,0c1.1,1.7,0.3,2.5-0.1,2.8c-0.1,0-0.4,0.1-0.5,0.1c0,0,0.7-0.7,0.2-1.4
		c-0.1-0.2-0.3-0.3-0.4-0.3c-0.2-0.1-0.4-0.1-0.6-0.1l0,0v0.1c1.1,1.3-0.8,2-0.8,2l0,0c0.2,0.1,0.5,0.2,0.5,0.2
		c0.9,0.2,4.3,0.8,5.1-1c0.1-0.2,0.2-0.6,0.2-0.9C45.9,49.3,45.6,48.7,45,48.3"/>
	<path class="st0" d="M36.1,43.1L36.1,43.1L36,43.1c-0.2,0.1-0.3,0.2-0.4,0.3s-0.2,0.2-0.2,0.3s-0.1,0.2-0.1,0.3
		c0.1,0.1,0.1,0.3,0.3,0.4c0.1,0.1,0.2,0.1,0.3,0.1c0.2-0.1,0.3-0.2,0.4-0.3c0.1-0.1,0.1-0.2,0.1-0.3c0-0.1,0-0.3-0.1-0.4
		C36.2,43.4,36.2,43.3,36.1,43.1"/>
	<path class="st0" d="M36.4,36.2C36.4,36.2,36.4,36.1,36.4,36.2L36.4,36.2c-0.3,0.1-0.6,0.3-0.8,0.4c-0.9,0.8-1.8,2.3-2.1,4.1
		c-0.3,1.7-0.2,3.3,0.3,4.4c0.3,0.7,0.8,1.2,1.5,1.3c0.6,0.1,1.3-0.2,1.8-0.7c0.9-0.8,1.7-2.3,2.1-4c0.3-1.8,0.2-3.5-0.4-4.5
		c-0.3-0.7-0.8-1.1-1.4-1.2C37,36,36.7,36,36.4,36.2 M34.3,40.9c0-0.1,0.1-0.5,0.1-0.6c0,0,0.1,0.2,0.3,0.3c0.2,0.2,0.3,0.2,0.4,0.2
		c0,0-0.2-0.2-0.2-0.5c-0.1-0.4,0.1-0.7,0.1-0.7c0.1,0.2,0.6,1.2,0.7,1.6c-0.1,0.1-0.1,0.2-0.1,0.3c0,0.1,0,0.1,0,0.2
		c0,0.1,0,0.1,0,0.1c0,0-1.2,1.5-1.5,1.8C34,42.5,34.2,41.6,34.3,40.9 M35.5,45.5c-0.4-0.1-0.6-0.3-0.8-0.4
		c-0.4-0.4-0.4-0.8-0.4-0.8l1.4-1.8c0.1,0.2,0.2,0.3,0.3,0.3l0,0c0.1,0,0.3-0.1,0.4-0.2c0.1,0.1,0.9,1.6,0.9,1.7
		C36.8,45.1,36,45.6,35.5,45.5 M38.3,41.7c-0.1,0.3-0.1,0.6-0.2,0.9c-0.1,0.2-0.2,0.6-0.3,0.8c-0.2-0.3-0.6-0.9-0.9-1.6
		c0-0.1,0.1-0.1,0.1-0.2c0-0.1,0.1-0.3,0.1-0.4c0.4-0.4,0.8-0.9,1.2-1.3c0,0,0.2,0.2,0.1,0.5c-0.1,0.3-0.3,0.5-0.3,0.5
		c0.3,0,0.4,0,0.6-0.1C38.5,41.1,38.4,41.5,38.3,41.7 M37.7,37.3c0.1,0.1,0.1,0.2,0.2,0.2c0,0.1,0.1,0.1,0.1,0.1s0.1,0.1,0.1,0.2
		c0.1,0.3,0.2,0.6,0.3,0.9c-0.1,0-0.1,0-0.2-0.1c-0.8,0-1.2,0.4-1.4,1.1c0,0,0.3-0.2,0.4-0.2s0.4,0,0.4,0c-0.3,0.4-0.6,0.7-0.9,1.1
		c-0.1-0.2-0.2-0.3-0.3-0.3c-0.1,0-0.3,0.1-0.4,0.2c-0.1-0.3-0.4-1.1-0.5-1.2c0,0,0.2,0,0.4,0.1c0.2,0.1,0.4,0.4,0.4,0.4
		c0.1-0.2,0-0.5-0.1-0.7c-0.1-0.4-0.4-0.6-0.9-0.7c-0.1,0-0.2,0-0.3,0c0.3-0.6,0.8-0.9,1.2-1.2C36.4,38,37.5,38.2,37.7,37.3"/>
	<path class="st0" d="M58.5,32.2c-0.1-0.2-0.2-0.3-0.3-0.3s-0.3-0.1-0.4-0.1l0,0c-0.7,0.2-1.4,0.4-2.1,0.6c-0.3,0.1-0.7,0.2-1.1,0.2
		c-0.3,0.1-0.7,0.1-1.1,0.2c-0.7,0.1-1.4,0.2-2.2,0.2c-0.4,0.1-0.9,0.1-1.4,0.1c0.1,0,0.1-0.1,0.2-0.1c0.2-0.1,0.4-0.1,0.6-0.2
		c0.4-0.1,0.8-0.3,1.2-0.4c0.8-0.3,1.5-0.6,2.2-0.9c0.7-0.3,1.5-0.7,2.2-1.1c0.7-0.4,1.3-0.9,2-1.5c0.2-0.2,0.2-0.5,0.1-0.7
		c-0.1-0.1-0.2-0.2-0.3-0.2c-0.2-0.1-0.4-0.1-0.6,0l0,0c-0.7,0.4-1.3,0.7-2,1.1c-0.7,0.3-1.3,0.7-2.1,0.9c-0.7,0.3-1.4,0.5-2.2,0.7
		c-0.4,0.1-0.7,0.2-1.1,0.3l-0.2,0.1c0.2-0.1,0.4-0.2,0.6-0.2c0.4-0.2,0.8-0.4,1.2-0.6c0.7-0.4,1.4-0.9,2.2-1.4
		c0.7-0.5,1.4-1,2.1-1.6c0.6-0.6,1.2-1.2,1.7-2c0.2-0.2,0.1-0.5-0.1-0.7c-0.1-0.1-0.1-0.1-0.2-0.2c-0.2-0.1-0.4-0.1-0.7,0.1l0,0
		c-0.6,0.5-1.2,1.1-1.8,1.6c-0.6,0.5-1.2,0.9-2,1.3c-0.1,0.1-0.3,0.2-0.4,0.2c-0.6,0.3-1.2,0.7-1.7,0.9c-0.1,0.1-0.2,0.1-0.3,0.2
		c-0.2,0.1-0.4,0.2-0.7,0.3c0.1,0,0.1-0.1,0.1-0.1c0.3-0.2,0.5-0.3,0.7-0.6c0.1-0.1,0.3-0.2,0.4-0.3c0.7-0.6,1.3-1.2,2-1.8l0,0
		c0.7-0.7,1.3-1.3,1.8-2.1c0.5-0.8,0.9-1.6,1.3-2.4c0.1-0.2,0-0.6-0.2-0.7l0,0l0,0c-0.3-0.2-0.6-0.1-0.8,0.2l0,0
		c-0.4,0.7-1,1.3-1.6,2c-0.2,0.2-0.3,0.4-0.5,0.6c-0.4,0.4-0.8,0.9-1.2,1.2c-0.2,0.2-0.4,0.4-0.7,0.6c-0.4,0.3-0.8,0.7-1.2,0.9
		c0.1-0.1,0.1-0.2,0.2-0.2c0.3-0.4,0.7-0.9,0.9-1.4c0.2-0.3,0.4-0.7,0.6-1c0.3-0.6,0.7-1.2,0.9-1.8c0.1-0.3,0.2-0.6,0.3-0.8
		c0.3-0.9,0.6-1.8,0.7-2.8c0.1-0.3-0.1-0.6-0.4-0.6l0,0l0,0c-0.3-0.1-0.6,0.1-0.7,0.3v0.1c-0.2,0.7-0.6,1.4-0.9,2.1
		c-0.1,0.1-0.1,0.2-0.2,0.3c-0.4,0.7-0.7,1.5-1.2,2.2c0,0.1-0.1,0.1-0.1,0.1c-0.3,0.5-0.7,0.9-1.1,1.4c-1.1,1.2-3,2.5-4,3
		c-0.5,0.2-1,0.6-1.5,0.8l0,0c-0.3,0.2-0.6,0.4-0.8,0.8C43,28.9,43,29,42.9,29.1c-0.1,0.2-0.1,0.3-0.1,0.5c0,0.6,0.3,1.3,0.9,1.5
		c0.2,0.1,0.4,0.2,0.6,0.2c0.1,0,0.1,0,0.1,0c0.2,0,0.3-0.1,0.3-0.1s-0.2-0.4,0.1-0.6c0.1,0,0.1-0.1,0.1-0.1
		c0.1-0.1,0.2-0.1,0.3-0.1s0.2,0,0.3,0.1c0.3,0.1,0.4,0.4,0.4,0.7c0,0.4-0.3,0.7-0.7,0.8c-0.2,0.1-0.5,0.1-0.7,0.1
		c-0.4,0-0.9-0.1-1.3-0.1c-0.6-0.1-1.1-0.3-1.6-0.5c-0.6-0.3-1.8-1.1-1.7-1.2c-1.2-1.1-2-2.6-2-4.3c0-0.1,0-0.2,0-0.2
		c0-0.2,0-0.5,0.1-0.7c0.1-0.4,0.2-0.8,0.3-1.2c0.2-0.7,0.6-1.3,1-1.9c0.1-0.1,0.2-0.3,0.5-0.6l0.1-0.1l0,0c0.3-0.3,0.6-0.6,0.9-0.8
		l0,0l0,0c0,0-0.1-0.1-0.1-0.1c-0.1,0-0.2-0.1-0.2-0.1c-0.6-0.1-0.7-0.3-0.8-0.6l0,0v-0.1c-0.1-0.1,0-0.3,0-0.4
		c0.1-0.2,0.2-0.4,0.3-0.5c0.1-0.1,0.1-0.1,0.2-0.2c0.2-0.1,0.3-0.2,0.6-0.2c0.1,0,0.1,0,0.2,0l0,0c0.5-0.1,1,0.2,1.2,0.7l0,0
		l-0.3,0.1l0,0l0,0c-0.1-0.2-0.3-0.3-0.5-0.3c-0.1,0-0.1,0-0.2,0.1c-0.1,0-0.1,0.1-0.1,0.1c-0.3,0.3-0.1,0.9,0.4,1
		c0.1,0,0.2,0,0.2-0.1l0,0c0.2-0.1,1.4-0.4,2.2-0.5c0.2,0,0.3-0.1,0.4-0.1l0,0l0,0l0,0c0.1-0.2,0.1-1.6-0.9-2.1
		c-0.9-0.3-1.6-0.4-2.3-0.4c-0.6,0-1.2,0.1-1.7,0.2c-2.2,0.5-3.6,1.8-4.8,4.6l0,0c-0.8,1.7-1.2,3.2-1.3,3.7c0,0-0.1,0-0.1,0
		c-0.1-0.4-0.4-2.1-1.3-3.7l0,0c-1.2-2.8-2.6-4.1-4.8-4.6c-0.6-0.1-1.1-0.2-1.8-0.2s-1.4,0.1-2.3,0.4c-1.1,0.4-1.1,1.8-0.9,2.1l0,0
		c0.1,0,0.2,0,0.4,0.1c0.8,0.1,2,0.4,2.2,0.5l0,0c0.1,0.1,0.2,0.1,0.2,0.1c0.5-0.1,0.8-0.9,0.3-1.1c-0.1-0.1-0.2-0.1-0.2-0.1
		c-0.2,0-0.4,0.1-0.5,0.3l0,0l-0.3-0.1l0,0c0.2-0.5,0.7-0.7,1.2-0.7l0,0c0.1,0,0.1,0,0.2,0c0.3,0.1,0.5,0.2,0.7,0.4
		c0.1,0.1,0.2,0.3,0.3,0.5c0,0.1,0,0.3,0,0.4v0.1l0,0c-0.1,0.2-0.3,0.5-0.8,0.6c0,0-0.1,0.1-0.1,0.1c-0.1,0.1-0.1,0.1-0.1,0.1
		c0.3,0.2,0.7,0.6,1,0.8c0.3,0.3,0.4,0.5,0.5,0.6c0.4,0.6,0.8,1.2,1,1.9c0.1,0.4,0.2,0.8,0.3,1.2c0,0.2,0.1,0.5,0.1,0.7
		c0,0.1,0,0.2,0,0.2c0,0.2,0,0.3-0.1,0.4c-0.2,0.7-0.4,1.8-1.1,2.8c-0.1,0.1-0.1,0.1-0.1,0.1l0,0c-0.2,0.3-0.5,0.7-0.8,0.9
		c0,0.1-1.1,0.9-1.7,1.2c-0.5,0.2-1.1,0.4-1.6,0.5c-0.4,0.1-0.8,0.1-1.3,0.1c-0.2,0-0.6,0-0.7-0.1c-0.4-0.1-0.7-0.4-0.7-0.8
		c0-0.3,0.2-0.6,0.4-0.7c0.1-0.1,0.2-0.1,0.3-0.1c0.1,0,0.2,0,0.3,0.1c0.1,0,0.1,0.1,0.1,0.1c0.2,0.2,0.1,0.6,0.1,0.6
		s0.1,0.1,0.3,0.1c0.1,0,0.1,0,0.1,0c0.2,0,0.4-0.1,0.6-0.2c0.5-0.3,0.9-0.9,0.9-1.5c0-0.2-0.1-0.3-0.1-0.5
		c-0.1-0.1-0.1-0.2-0.1-0.3c-0.2-0.3-0.4-0.6-0.8-0.8l0,0c-0.5-0.2-1-0.6-1.5-0.8c-1-0.5-2.8-1.7-4-3c-0.3-0.4-0.7-0.9-1.1-1.4
		c0-0.1-0.1-0.1-0.1-0.1c-0.4-0.7-0.8-1.4-1.2-2.2c-0.1-0.1-0.1-0.2-0.2-0.3c-0.3-0.7-0.6-1.4-0.9-2.1V18c-0.1-0.3-0.4-0.4-0.7-0.3
		l0,0l0,0c-0.3,0.1-0.4,0.4-0.4,0.6c0.2,1,0.4,1.9,0.7,2.8c0.1,0.3,0.2,0.6,0.3,0.8c0.3,0.6,0.6,1.2,0.9,1.8c0.2,0.3,0.4,0.7,0.6,1
		c0.3,0.5,0.6,0.9,0.9,1.4c0.1,0.1,0.1,0.2,0.2,0.2c-0.4-0.3-0.8-0.6-1.2-0.9c-0.2-0.2-0.4-0.4-0.7-0.6c-0.4-0.4-0.8-0.8-1.2-1.2
		c-0.2-0.2-0.3-0.4-0.5-0.6c-0.6-0.6-1.1-1.3-1.6-2l0,0c-0.2-0.3-0.6-0.3-0.8-0.2l0,0l0,0c-0.2,0.2-0.3,0.4-0.2,0.7
		c0.3,0.9,0.8,1.6,1.3,2.4c0.5,0.8,1.1,1.4,1.8,2.1l0,0c0.6,0.6,1.3,1.2,2,1.8c0.1,0.1,0.3,0.2,0.4,0.3c0.2,0.2,0.4,0.4,0.7,0.6
		c0.1,0,0.1,0.1,0.1,0.1c-0.2-0.1-0.4-0.2-0.7-0.3c-0.1-0.1-0.2-0.1-0.3-0.2c-0.6-0.3-1.2-0.6-1.7-0.9c-0.1-0.1-0.3-0.2-0.4-0.2
		c-0.7-0.4-1.3-0.9-2-1.3c-0.6-0.5-1.2-1-1.8-1.6l0,0c-0.2-0.2-0.4-0.2-0.7-0.1c-0.1,0.1-0.1,0.1-0.2,0.2c-0.2,0.2-0.2,0.5-0.1,0.7
		c0.5,0.7,1.1,1.4,1.7,2c0.6,0.6,1.3,1.1,2.1,1.6c0.7,0.5,1.4,0.9,2.2,1.4c0.4,0.2,0.8,0.4,1.2,0.6c0.2,0.1,0.3,0.2,0.6,0.2
		l-0.2-0.1c-0.4-0.1-0.7-0.2-1.1-0.3c-0.7-0.2-1.5-0.4-2.2-0.7c-0.7-0.2-1.4-0.6-2.1-0.9c-0.7-0.3-1.3-0.7-2-1.1l0,0
		c-0.2-0.1-0.4-0.1-0.6,0C7.4,28,7.3,28,7.3,28.2c-0.1,0.2-0.1,0.6,0.1,0.7c0.6,0.6,1.3,1.1,2,1.5c0.7,0.4,1.4,0.8,2.2,1.1
		c0.7,0.3,1.5,0.6,2.2,0.9c0.4,0.2,0.8,0.3,1.2,0.4c0.2,0.1,0.4,0.1,0.6,0.2c0.1,0,0.1,0.1,0.2,0.1c-0.4,0-0.9-0.1-1.4-0.1
		c-0.7-0.1-1.4-0.2-2.2-0.2c-0.4-0.1-0.7-0.1-1.1-0.2c-0.3-0.1-0.7-0.2-1.1-0.2c-0.7-0.2-1.4-0.4-2.1-0.6l0,0
		c-0.2-0.1-0.3,0-0.4,0.1c-0.1,0.1-0.2,0.2-0.3,0.3c-0.1,0.3,0.1,0.6,0.3,0.7c0.7,0.4,1.4,0.7,2.1,1c0.7,0.3,1.5,0.4,2.3,0.6
		c0.7,0.2,1.5,0.3,2.2,0.4c0.7,0.1,1.3,0.2,2.1,0.3c-0.4,0.1-0.9,0.1-1.3,0.2c-0.7,0.1-1.4,0.1-2.1,0.2c-0.2,0-0.3,0-0.5,0h-0.5h-1
		c-0.7,0-1.4-0.1-2.1-0.1l0,0c-0.1,0-0.2,0-0.3,0.1c-0.2,0.1-0.3,0.3-0.3,0.5c0,0.3,0.2,0.5,0.4,0.6c0.7,0.2,1.4,0.4,2.2,0.5
		c0.4,0.1,0.7,0.1,1.1,0.1c0.2,0,0.4,0,0.6,0H13c0.7,0,1.4,0,2.2,0c0.5,0,0.6,0,1.1,0l0.1,0.2c-0.8,0.3-1.4,0.4-2.2,0.7
		c-0.7,0.2-1.3,0.3-1.9,0.4c-0.6,0.2-1.3,0.3-2,0.4l0,0c-0.1,0-0.1,0-0.1,0.1c-0.3,0.1-0.4,0.4-0.3,0.7c0.1,0.3,0.3,0.4,0.5,0.4
		c0.7,0.1,1.4,0.1,2.1,0c0.7-0.1,1.4-0.2,2.1-0.3s1.7-0.3,2.3-0.5l0.1,0.2c-0.3,0.2-0.9,0.5-1.2,0.6c-0.3,0.2-0.6,0.3-0.8,0.4
		c-0.3,0.1-0.6,0.3-0.8,0.4l0,0l0,0c-0.6,0.3-1.1,0.6-1.7,0.8l0,0c-0.3,0.2-0.4,0.5-0.2,0.8c0.1,0.2,0.4,0.3,0.6,0.3
		c0.7-0.1,1.3-0.3,1.9-0.5c0.6-0.2,1.2-0.5,1.8-0.8c0.2-0.1,0.8-0.3,0.9-0.4l0.1,0.5c-0.1,0.1-0.4,0.3-0.4,0.3l-0.7,0.6
		c-0.4,0.4-0.9,0.8-1.3,1.3C15,44,15,44.4,15.2,44.6c0.2,0.2,0.4,0.2,0.7,0.1l0,0l0,0c0.6-0.3,1.1-0.6,1.6-0.9l0.5-0.3
		c0,0,0.3,1.7,0.3,2.4c0.2,2.2,0.2,4.7,0.4,5c0.2,0.2,0.6,0.2,0.9,0.2c0-0.1-0.1-0.2-0.1-0.2l0,0c-0.3-1.2,0.1-2.1,0.3-2.4l0,0
		c0,0,0-0.1,0-0.1c-0.1-1.4-0.3-3.7-0.6-5.4c-0.5-2.8-1.3-7.3-1.6-8.5c0-0.1,0-0.2,0.1-0.2c0.1-0.1,0.1-0.1,0.2-0.1
		c0.8,0.2,2.3,0.3,3.2,0.4c0.7,0.1,2.3,0.1,4-0.4c-0.7,1.7-1.1,3.6-1.1,5.6c0,4,1.6,7.5,3.9,9.6c-0.3,0.1-0.5,0.1-0.6,0.1
		c-0.6,0.2-1.1,0.5-1.3,0.7l0,0H26c-0.1,0.1-0.1,0.2-0.1,0.3c0.1,0.3,0.2,0.7,0.4,0.8c0.1,0.1,0.1,0.1,0.1,0.1
		c2.2,0.1,3.8,0.3,5.1,1.1l0,0c0.1,0,0.1,0.1,0.1,0.1c0.6,0.5,0.8,1.5,0.3,2.2c-0.2,0.2-0.3,0.3-0.6,0.5c-0.6,0.5-1.3,0.9-2,1.3
		c-0.7,0.3-1.4,0.6-2.1,0.7s-1.4,0.2-2.5,0.4l0,0c-0.1,0-0.1,0-0.1,0.1c-0.1,0.1-0.1,0.2-0.1,0.2s0.1,0.1,0.1,0.1
		c0.7,0.8,1.7,1.1,2.7,1c0.8-0.1,1.5-0.3,2.2-0.6c0.2-0.1,0.4-0.2,0.7-0.3c0.8-0.5,1.6-1.2,2.1-2c0,0,0-0.1,0.1-0.1l0,0
		c-0.1,0.4-0.6,1.6-0.8,2c-0.3,0.4-0.6,0.7-1,1c-0.3,0.2-0.6,0.4-0.8,0.6c-0.1,0.1-0.2,0.1-0.3,0.2c-0.4,0.2-0.9,0.3-1.6,0.4l0,0
		c-0.1,0-0.1,0-0.1,0.1c-0.1,0.1-0.1,0.1-0.1,0.2c0,0.1,0.1,0.1,0.1,0.1c0.5,0.4,1.2,0.6,1.9,0.5c0.3,0,0.7-0.1,1-0.2
		c0.3-0.1,0.6-0.3,0.9-0.6c0.1-0.1,0.2-0.2,0.2-0.2c0.2,0.3,0.3,0.6,0.4,0.9c0.2,0.3,0.3,0.7,0.5,1.1c0.1,0.1,0.2,0.1,0.2,0.1
		s0.2-0.1,0.2-0.1c0.2-0.3,0.3-0.7,0.5-1.1c0.1-0.3,0.3-0.6,0.4-0.9c0.1,0.1,0.2,0.2,0.2,0.2c0.3,0.2,0.6,0.4,0.9,0.6
		c0.3,0.1,0.7,0.2,1,0.2c0.7,0.1,1.3-0.1,1.9-0.5c0.1-0.1,0.1-0.1,0.1-0.1c0-0.1,0-0.2-0.1-0.2l-0.1-0.1l0,0
		c-0.6-0.1-1.1-0.2-1.6-0.4c-0.1-0.1-0.2-0.1-0.3-0.2c-0.3-0.2-0.6-0.3-0.8-0.6c-0.3-0.3-0.7-0.7-1-1c-0.3-0.4-0.7-1.5-0.8-2l0,0
		c0,0,0,0.1,0.1,0.1c0.6,0.8,1.3,1.4,2.1,2c0.2,0.1,0.4,0.2,0.7,0.3c0.7,0.3,1.4,0.6,2.2,0.6c1,0.1,2.1-0.2,2.7-1
		c0-0.1,0.1-0.1,0.1-0.1c0-0.1,0-0.2-0.1-0.2c0,0-0.1-0.1-0.1-0.1l0,0c-0.9-0.2-1.7-0.3-2.5-0.4c-0.7-0.1-1.4-0.3-2.1-0.7
		c-0.7-0.3-1.3-0.8-2-1.3c-0.2-0.2-0.3-0.3-0.6-0.5c-0.5-0.7-0.3-1.7,0.3-2.2c0.1,0,0.1-0.1,0.1-0.1l0,0c1.3-0.8,2.9-1,5.1-1.1
		c0.1,0,0.1-0.1,0.1-0.1c0.2-0.2,0.3-0.6,0.4-0.8c0-0.1,0-0.2-0.1-0.3H40l0,0c-0.3-0.2-0.7-0.4-1.3-0.7c-0.1,0-0.3-0.1-0.5-0.1
		c2.3-2.1,3.9-5.6,3.9-9.6c0-2.1-0.4-4-1.1-5.6c1.7,0.5,3.3,0.5,4,0.4c0.9-0.1,2.3-0.2,3.2-0.4c0.1,0,0.2,0,0.2,0.1s0.1,0.1,0.1,0.2
		c-0.2,1.3-1.1,5.7-1.6,8.5c-0.3,1.7-0.5,4-0.6,5.4v0.1l0,0c0.2,0.3,0.6,1.2,0.3,2.4l0,0c0,0.1-0.1,0.2-0.1,0.2
		c0.3,0,0.7,0.1,0.9-0.2c0.2-0.3,0.2-2.8,0.4-5c0.1-0.7,0.3-2.4,0.3-2.4l0.5,0.3c0.5,0.3,1,0.7,1.6,0.9l0,0l0,0
		c0.2,0.1,0.4,0.1,0.7-0.1c0.2-0.2,0.3-0.6,0.1-0.8c-0.4-0.4-0.8-0.9-1.3-1.3L49,41.9c0,0-0.3-0.2-0.4-0.3l0.1-0.5
		c0.2,0.1,0.8,0.3,0.9,0.4c0.6,0.3,1.2,0.6,1.8,0.8c0.6,0.2,1.2,0.4,1.9,0.5c0.2,0.1,0.5-0.1,0.6-0.3c0.2-0.3,0.1-0.7-0.2-0.8l0,0
		c-0.6-0.3-1.1-0.6-1.7-0.8l0,0l0,0c-0.3-0.1-0.6-0.3-0.8-0.4s-0.6-0.3-0.8-0.4c-0.3-0.2-0.9-0.4-1.2-0.6l0.1-0.2
		c0.7,0.1,1.7,0.4,2.3,0.5c0.7,0.1,1.4,0.3,2.1,0.3c0.7,0.1,1.4,0.1,2.1,0c0.3,0,0.4-0.2,0.5-0.4c0.1-0.3-0.1-0.6-0.3-0.7
		c-0.1,0-0.1-0.1-0.1-0.1l0,0c-0.6-0.1-1.3-0.2-2-0.4c-0.6-0.1-1.2-0.3-1.9-0.4c-0.8-0.2-1.4-0.4-2.2-0.7l0.1-0.2c0.5,0,0.6,0,1.1,0
		c0.7,0,1.4,0,2.2,0h0.6c0.2,0,0.4,0,0.6,0c0.4,0,0.7-0.1,1.1-0.1c0.7-0.1,1.4-0.3,2.2-0.5c0.2-0.1,0.4-0.3,0.4-0.6
		c0-0.2-0.1-0.4-0.3-0.5c-0.1-0.1-0.2-0.1-0.3-0.1l0,0c-0.7,0.1-1.4,0.1-2.1,0.1h-1h-0.5c-0.2,0-0.3,0-0.5,0
		c-0.7-0.1-1.4-0.1-2.1-0.2c-0.4-0.1-0.9-0.1-1.3-0.2c0.7-0.1,1.4-0.2,2.1-0.3c0.8-0.1,1.5-0.3,2.2-0.4c0.7-0.2,1.6-0.3,2.3-0.6
		s1.4-0.6,2.1-1C58.5,32.8,58.6,32.5,58.5,32.2 M32.8,50.3L32.8,50.3c-2.7,0-5-1.8-6.4-4.5c0.7-1.1,2-3.5,2-3.5
		c0.1,0.5,0.9,3.7,0.9,3.7s-0.9,0.4-0.4,0.7c0.5,0.3,1.5,0.1,1.5,0.1s0.3,0.2,0.6,0.4c0.3,0.3,0.7,0.4,1.1,0.6
		c0.2,0.1,0.3,0.1,0.3,0.1s-0.1,0.4,0.1,0.7c0.1,0.1,0.1,0.2,0.3,0.2c0.1,0,0.1,0,0.2-0.1c0.2-0.1,0.3-0.2,0.4-0.3
		c0.2-0.2,0.3-0.4,0.4-0.6c0,0,0,0,0-0.1c0.4-0.1,0.8-0.2,1.2-0.7c-0.9-0.4-1.8-1.2-2.1-2.7c-0.1-0.5-0.2-1.1-0.2-1.7
		c0-0.6,0.1-1.3,0.2-2v-0.1c0.4-2.3,1.9-4.2,2.3-4.3c-0.1-0.3-0.1-1.1-1.1-1.5c-0.2-0.1-0.9-0.1-0.9-0.4c0.3-0.2,0.6-0.6,0.6-1.1
		c0.1-0.7-0.2-1.3-0.7-1.5c0.1-0.2,0.4-0.6,0.4-0.6l-0.5-0.6l-0.1,0.1l-0.6,0.3c0,0,0.2,0.5,0.2,0.7c-0.4,0.2-0.8,0.5-0.8,1.1
		c-0.1,0.3,0.1,0.8,0.4,1.1c0.2,0.2,0.2,0.3,0.1,0.4c-0.3,0.3-0.8,0.2-1.1,0.6c-0.2,0.2-0.4,0.8-0.4,0.8c-0.1,0.3-0.9,2.1-1.2,2.7
		c-0.1,0.2-0.4,0.7-0.4,0.7s-0.2,0.1-0.3,0.3c-0.2,0.1-0.3,0.3-0.4,0.4c-0.3,0.3-0.2,1,0,1.3l-2.2,4C26,45,26,44.9,26,44.9
		c-0.6-1.5-0.9-3.2-0.9-5c0-5.5,3.2-10.1,7.3-10.4h0.4h0.5c0.4,0.1,0.9,0.1,1.3,0.3c0.2,0.1,0.4,0.2,0.7,0.2
		c3.1,1.4,5.3,5.3,5.3,9.9C40.6,45.6,37.1,50.3,32.8,50.3 M32,39c0,0-1.5,0.6-2.2,0.9l1.5-2.6c0,0,0.1,0.3,0.7,0.6
		C32,38,32,39,32,39"/>
	<polygon class="st0" points="20.4,41.1 19.9,41.1 19.9,40.6 20.8,40.6 20.8,42.6 20.4,42.6 	"/>
	<polygon class="st0" points="21.5,43.1 22.6,41.1 21.4,41.1 21.4,40.6 23,40.6 23,41 21.9,43.3 	"/>
	<path class="st0" d="M42.5,42.3c0.2-0.2,1-0.6,1-0.9c0-0.2-0.2-0.3-0.3-0.3c-0.2,0-0.4,0.1-0.4,0.1l-0.1-0.3
		c0.1-0.1,0.3-0.2,0.6-0.2c0.6,0,0.8,0.3,0.8,0.6c0,0.4-0.6,0.8-0.8,0.9h0.9v0.4h-1.5v-0.3H42.5z"/>
	<path class="st0" d="M45.3,42.6h-1.1v-0.4l0.8-1.5h0.7v1.5h0.3v0.4h-0.3v0.7h-0.4C45.3,43.3,45.3,42.6,45.3,42.6z M45.3,42.3v-1
		l-0.6,1H45.3z"/>
	<path class="st1" d="M73.1,58.1c-0.4,0-0.8-0.3-0.8-0.8V7.2c0-0.4,0.3-0.8,0.8-0.8s0.8,0.3,0.8,0.8v50.1
		C73.9,57.7,73.5,58.1,73.1,58.1"/>
	<path class="st0" d="M95.8,23.6l-0.7,3.6h-3l3.4-15.9h3.7l3.1,15.9h-3l-0.7-3.6H95.8z M98.4,21.2l-0.5-3.3c-0.1-1-0.4-2.5-0.5-3.6
		h-0.1c-0.1,1-0.4,2.7-0.6,3.6l-0.6,3.3H98.4z"/>
	<path class="st0" d="M111.1,27c-0.4,0.2-1.3,0.4-2.4,0.4c-4.1,0-6-3.3-6-7.8c0-6,3.3-8.3,6.4-8.3c1.1,0,1.8,0.2,2.1,0.4l-0.5,2.6
		c-0.4-0.1-0.7-0.3-1.4-0.3c-1.8,0-3.3,1.5-3.3,5.5c0,3.8,1.4,5.2,3.3,5.2c0.5,0,1.1-0.1,1.5-0.2L111.1,27z"/>
	<path class="st0" d="M119.8,27c-0.4,0.2-1.3,0.4-2.4,0.4c-4.1,0-6-3.3-6-7.8c0-6,3.3-8.3,6.4-8.3c1.1,0,1.8,0.2,2.1,0.4l-0.5,2.6
		c-0.4-0.1-0.7-0.3-1.4-0.3c-1.8,0-3.3,1.5-3.3,5.5c0,3.8,1.4,5.2,3.3,5.2c0.5,0,1.1-0.1,1.5-0.2L119.8,27z"/>
	<path class="st0" d="M130.4,19c0,6-2.1,8.4-5.1,8.4c-3.6,0-5-3.8-5-8.2s1.7-8.1,5.2-8.1C129.3,11.1,130.4,15.3,130.4,19
		 M123.4,19.3c0,3.6,0.7,5.5,1.9,5.5c1.3,0,1.8-2.4,1.8-5.5c0-2.8-0.4-5.3-1.8-5.3C124.1,13.9,123.4,15.9,123.4,19.3"/>
	<polygon class="st0" points="135.2,11.4 135.2,24.5 138.3,24.5 138.3,11.4 141.4,11.4 141.4,24.6 142.7,24.6 142.5,30.6 
		140.2,30.6 140.1,27.2 132.1,27.2 132.1,11.4 	"/>
	<path class="st0" d="M146.9,11.4v3.5c0,2.9-0.2,5.6-0.3,7.3h0.1c0.4-1.3,1.3-3.4,1.7-4.7l2.4-6.1h2.8v15.9h-2.7v-3.5
		c0-3.2,0.1-5.5,0.2-7.1h-0.1c-0.4,1.4-1,3.3-1.6,4.7l-2.4,6.1h-2.9v-16H146.9z"/>
	<path class="st0" d="M158.5,23.6l-0.7,3.6h-3l3.4-15.9h3.7l3.1,15.9h-3l-0.7-3.6H158.5z M161.1,21.2l-0.5-3.3
		c-0.1-1-0.4-2.5-0.5-3.6H160c-0.1,1-0.4,2.7-0.6,3.6l-0.6,3.3H161.1z"/>
	<polygon class="st0" points="169.6,11.4 169.6,24.5 172.7,24.5 172.7,11.4 175.9,11.4 175.9,24.6 177.1,24.6 177,30.6 174.6,30.6 
		174.4,27.2 166.5,27.2 166.5,11.4 	"/>
	<path class="st0" d="M181.3,11.4v3.5c0,2.9-0.2,5.6-0.3,7.3h0.1c0.4-1.3,1.3-3.4,1.7-4.7l2.4-6.1h2.8v15.9h-2.7v-3.5
		c0-3.2,0.1-5.5,0.2-7.1h-0.1c-0.4,1.4-1,3.3-1.6,4.7l-2.4,6.1h-2.9v-16H181.3z"/>
	<path class="st0" d="M189.2,27.2c0.2-0.4,0.4-1.1,0.6-1.7c0.4-1.6,0.4-3.8,1.6-5c0.3-0.3,0.7-0.6,1.1-0.7v-0.1
		c-1.7-0.5-2.7-1.8-2.7-3.8c0-1.6,0.6-2.7,1.5-3.5c1-0.8,2.4-1.2,4-1.2c1.2,0,2.4,0.1,3.4,0.3v15.6h-3.1v-6.3h-0.4
		c-0.5,0-1,0.2-1.3,0.6c-0.7,0.9-0.8,3.2-1,4.4c-0.1,0.4-0.2,1-0.4,1.4C192.4,27.2,189.2,27.2,189.2,27.2z M195.6,13.7
		c-0.1,0-0.4-0.1-0.6-0.1c-1.4,0-2.1,1.2-2.1,2.4c0,1.5,0.9,2.4,2.2,2.4c0.2,0,0.2,0,0.4,0V13.7z"/>
	<path class="st0" d="M92.6,37.6c0.7-0.2,1.6-0.3,2.6-0.3c1.4,0,2.6,0.3,3.4,1.1c0.7,0.7,1,1.5,1,2.7c0,1.6-0.9,2.9-2.4,3.5v0.1
		c1.8,0.5,2.9,2,2.9,4c0,1.3-0.4,2.3-1.1,3.2c-0.9,1-2.3,1.4-4.2,1.4c-1.2,0-1.8-0.1-2.3-0.1V37.6z M94.3,44.1h0.8
		c1.5,0,2.7-1.1,2.7-2.8c0-1.5-0.7-2.6-2.6-2.6c-0.4,0-0.7,0.1-1,0.1C94.3,38.9,94.3,44.1,94.3,44.1z M94.3,51.7
		c0.2,0.1,0.5,0.1,0.9,0.1c1.9,0,3.1-1.1,3.1-3.2c0-2.2-1.5-3.2-3.2-3.2h-0.7V51.7z"/>
	<path class="st0" d="M103.9,37.4v6.3c0.4-0.1,0.8-0.1,1.2-0.1c2.8,0,4.7,1.8,4.7,4.6c0,1.4-0.4,2.5-1.1,3.4c-0.9,1-2.3,1.6-4.3,1.6
		c-1.1,0-1.8-0.1-2.3-0.1V37.4H103.9z M103.9,51.7c0.3,0.1,0.6,0.1,0.8,0.1c2,0,3.1-1.5,3.1-3.4c0-1.9-1.2-3.3-3.1-3.3
		c-0.3,0-0.6,0-0.9,0.1L103.9,51.7L103.9,51.7z M112.9,53.2H111V37.4h1.8V53.2z"/>
	<polygon class="st0" points="123.4,37.4 123.4,53.2 121.6,53.2 121.6,39 117.3,39 117.3,53.2 115.5,53.2 115.5,37.4 	"/>
	<path class="st0" d="M126.7,37.4l1.8,6.4c0.3,1,0.5,1.8,0.7,2.7h0.1c0.2-0.8,0.4-1.8,0.6-2.8l1.4-6.4h1.8l-1.9,7
		c-0.5,1.8-1.2,4.5-2.2,6.7c-0.7,1.3-1.8,2.3-2.9,2.3c-0.3,0-0.6,0-0.8-0.1l0.1-1.5c0.1,0,0.3,0.1,0.4,0.1c1.3,0,2.1-1.8,2.5-2.9
		c0.1-0.3,0.1-0.6,0-0.9l-3.5-10.6H126.7z"/>
	<path class="st0" d="M141.2,52.9c-0.5,0.3-1.2,0.4-2.3,0.4c-3.1,0-5.3-2.5-5.3-7.8c0-6.2,3.1-8.2,5.6-8.2c1,0,1.6,0.2,2,0.4
		l-0.4,1.5c-0.4-0.1-0.8-0.3-1.6-0.3c-1.7,0-3.7,1.6-3.7,6.4s1.8,6.4,3.7,6.4c0.7,0,1.3-0.1,1.7-0.4L141.2,52.9z"/>
	<path class="st0" d="M144.5,37.4v7.1h0.3l3.4-7.1h1.9l-3.9,7.4c1.9,0.4,2.6,2.1,2.9,4c0.3,1.5,0.6,3,1,4.4h-1.8
		c-0.4-1-0.7-2.6-0.9-4c-0.4-1.9-0.9-3.4-2.8-3.4h-0.3v7.3h-1.8V37.4H144.5z"/>
	<polygon class="st0" points="153.4,37.4 153.4,44.2 157.9,44.2 157.9,37.4 159.6,37.4 159.6,53.2 157.9,53.2 157.9,45.8 
		153.4,45.8 153.4,53.2 151.6,53.2 151.6,37.4 	"/>
	<path class="st0" d="M163.9,37.4v5.6c0,2.7-0.1,4.8-0.2,7.2h0.1c0.5-1.7,1.4-3.8,2.1-5.5l2.9-7.3h1.7v15.8h-1.6v-5.4
		c0-3.4,0.1-5.3,0.2-7.4h-0.1c-0.6,2-1.3,3.7-1.9,5.3l-2.9,7.6h-1.7V37.4H163.9z"/>
	<path class="st0" d="M174.6,37.4v7.1h0.3l3.4-7.1h1.9l-3.9,7.4c1.9,0.4,2.6,2.1,2.9,4c0.3,1.5,0.6,3,1,4.4h-1.8
		c-0.4-1-0.7-2.6-0.9-4c-0.4-1.9-0.9-3.4-2.8-3.4h-0.3v7.3h-1.8V37.4H174.6z"/>
	<path class="st0" d="M189.7,45.2c0,5.9-2.1,8.1-4.5,8.1c-2.6,0-4.4-2.8-4.4-8.1c0-5.2,1.8-8.1,4.6-8.1
		C188.1,37.3,189.7,40.1,189.7,45.2 M182.7,45.3c0,3.2,0.7,6.4,2.6,6.4c2.1,0,2.6-3.4,2.6-6.5c0-2.9-0.5-6.4-2.6-6.4
		C183.3,38.8,182.7,42.1,182.7,45.3"/>
	<path class="st0" d="M191.7,37.6c0.7-0.2,1.6-0.3,2.6-0.3c1.4,0,2.6,0.3,3.4,1.1c0.7,0.7,1,1.5,1,2.7c0,1.6-0.9,2.9-2.4,3.5v0.1
		c1.8,0.5,2.9,2,2.9,4c0,1.3-0.4,2.3-1.1,3.2c-0.9,1-2.3,1.4-4.2,1.4c-1.2,0-1.8-0.1-2.3-0.1V37.6z M193.5,44.1h0.8
		c1.5,0,2.7-1.1,2.7-2.8c0-1.5-0.7-2.6-2.6-2.6c-0.4,0-0.7,0.1-1,0.1V44.1z M193.5,51.7c0.2,0.1,0.5,0.1,0.9,0.1
		c1.8,0,3.1-1.1,3.1-3.2c0-2.2-1.5-3.2-3.2-3.2h-0.8L193.5,51.7L193.5,51.7z"/>
	<path class="st0" d="M237.9,51.7c-1.3,0.6-3.2,1.1-5.8,1.1c-8,0-13.7-6.4-13.7-20.3c0-16.2,8-21.3,14.5-21.3c2.5,0,4.2,0.5,5.1,1.1
		l-1.1,4c-1-0.4-2-0.8-4.1-0.8c-4.4,0-9.5,4.2-9.5,16.7s4.6,16.7,9.6,16.7c1.8,0,3.3-0.4,4.3-0.9L237.9,51.7z"/>
	<polygon class="st0" points="263.2,11.5 263.2,52.5 258.5,52.5 258.5,15.6 247.4,15.6 247.4,52.5 242.6,52.5 242.6,11.5 	"/>
	<path class="st0" d="M286.3,14.1c-1.2,0.5-3.3,0.8-5.4,1.4c-3.2,0.7-4.9,2.4-6.1,4.9c-1.1,2.4-1.5,5.2-1.8,7.6h0.2
		c1-2.6,3.6-4.9,6.7-4.9c4.8,0,8.5,4.1,8.5,14.5c0,10.2-3.7,15.4-9.5,15.4c-8.1,0-9.8-10.2-9.8-17.9c0-6.8,0.7-12.8,2.8-16.8
		c1.8-3.7,4.5-5.8,8.2-6.7c2-0.6,5-1,6.4-1.5L286.3,14.1z M278.7,26.9c-2.1,0-3.5,1.5-4.1,3.2c-0.8,2-1,4.5-1,6.2
		c0,3.4,0.6,12.8,5.2,12.8c4.2,0,4.9-7.1,4.9-11.1C283.7,33.7,282.9,26.9,278.7,26.9"/>
	<polygon class="st0" points="310.1,11.5 310.1,15.6 298.7,15.6 298.7,52.5 294,52.5 294,11.5 	"/>
	<path class="st0" d="M317.6,11.5l4.9,16.7c0.8,2.5,1.3,4.8,1.9,7.1h0.2c0.5-2,1-4.7,1.5-7.2l3.7-16.5h4.7l-4.9,18.2
		c-1.3,4.5-3,11.9-5.8,17.3c-1.8,3.5-4.6,5.9-7.7,5.9c-0.8,0-1.5-0.1-2.2-0.2l0.2-3.8c0.3,0.1,0.7,0.2,1.2,0.2
		c3.3,0,5.6-4.7,6.4-7.6c0.2-0.7,0.2-1.5-0.1-2.4l-9.2-27.5L317.6,11.5L317.6,11.5z"/>
</g>
</svg>
