<?xml version="1.0" encoding="utf-8"?>
<svg xmlns="http://www.w3.org/2000/svg" xmlns:xlink="http://www.w3.org/1999/xlink" viewBox="0 0 447.97 111.47"><defs><style>.cls-1,.cls-3,.cls-4,.cls-5{fill:none;}.cls-2{clip-path:url(#clip-path);}.cls-3,.cls-4,.cls-5{stroke:#be894a;stroke-miterlimit:10;}.cls-3{stroke-width:0.28px;}.cls-4{stroke-width:1.13px;}.cls-5{stroke-width:0.57px;}.cls-6{fill:#3f3f3f;}</style><clipPath id="clip-path"><path class="cls-1" d="M238.87,35c0-5.48-6.66-9.92-14.89-9.92S209.1,29.53,209.1,35Z"/></clipPath></defs><title>Ресурс 1</title><g id="Слой_2" data-name="Слой 2"><g id="Layer_1" data-name="Layer 1"><g class="cls-2"><rect class="cls-3" x="226.11" y="26.5" width="6.38" height="7.79"/><line class="cls-3" x1="229.3" y1="26.5" x2="229.3" y2="34.3"/><line class="cls-3" x1="232.49" y1="30.4" x2="226.11" y2="30.4"/><rect class="cls-3" x="232.49" y="26.5" width="6.38" height="7.79"/><line class="cls-3" x1="235.68" y1="26.5" x2="235.68" y2="34.3"/><line class="cls-3" x1="238.87" y1="30.4" x2="232.49" y2="30.4"/><rect class="cls-3" x="215.48" y="26.5" width="6.38" height="7.79"/><line class="cls-3" x1="218.67" y1="26.5" x2="218.67" y2="34.3"/><line class="cls-3" x1="221.86" y1="30.4" x2="215.48" y2="30.4"/><rect class="cls-3" x="209.1" y="26.5" width="6.38" height="7.79"/><line class="cls-3" x1="212.29" y1="26.5" x2="212.29" y2="34.3"/><line class="cls-3" x1="215.48" y1="30.4" x2="209.1" y2="30.4"/></g><rect class="cls-4" x="404.7" y="35.01" width="7.79" height="32.6"/><rect class="cls-5" x="440.13" y="18.71" width="3.54" height="48.9"/><rect class="cls-4" x="432.33" y="35.01" width="7.8" height="32.6"/><path class="cls-3" d="M412.49,47.05c0-2.93,4.44-5.31,9.92-5.31s9.92,2.38,9.92,5.31"/><path class="cls-5" d="M412.49,35a9.92,9.92,0,1,1,19.84,0"/><path class="cls-5" d="M410.36,35a12,12,0,1,1,24.1,0"/><rect class="cls-3" x="419.22" y="26.5" width="6.38" height="7.79"/><line class="cls-3" x1="422.41" y1="26.5" x2="422.41" y2="34.3"/><line class="cls-3" x1="419.22" y1="30.4" x2="425.6" y2="30.4"/><line class="cls-5" x1="432.33" y1="37.13" x2="440.13" y2="37.13"/><line class="cls-5" x1="404.7" y1="37.13" x2="412.49" y2="37.13"/><rect class="cls-5" x="4.3" y="16.58" width="439.37" height="2.13"/><rect class="cls-4" x="2.18" y="14.46" width="443.62" height="2.13"/><polygon class="cls-5" points="80.84 0.28 367.13 0.28 447.92 14.46 0.05 14.46 80.84 0.28"/><line class="cls-3" x1="443.67" y1="20.83" x2="4.3" y2="20.83"/><rect class="cls-4" x="377.06" y="35.01" width="7.79" height="32.6"/><path class="cls-3" d="M404.7,47.05c0-2.93-4.45-5.31-9.93-5.31s-9.92,2.38-9.92,5.31"/><path class="cls-5" d="M404.7,35a9.93,9.93,0,0,0-19.85,0"/><path class="cls-5" d="M406.82,35a12,12,0,1,0-24.09,0"/><rect class="cls-3" x="391.58" y="26.5" width="6.38" height="7.79"/><line class="cls-3" x1="394.77" y1="26.5" x2="394.77" y2="34.3"/><line class="cls-3" x1="397.96" y1="30.4" x2="391.58" y2="30.4"/><line class="cls-5" x1="384.85" y1="37.13" x2="377.06" y2="37.13"/><rect class="cls-4" x="349.42" y="35.01" width="7.8" height="32.6"/><path class="cls-3" d="M377.06,47.05c0-2.93-4.44-5.31-9.93-5.31s-9.92,2.38-9.92,5.31"/><path class="cls-5" d="M377.06,35a9.93,9.93,0,0,0-19.85,0"/><path class="cls-5" d="M379.18,35a12,12,0,1,0-24.09,0"/><rect class="cls-3" x="363.95" y="26.5" width="6.38" height="7.79"/><line class="cls-3" x1="367.13" y1="26.5" x2="367.13" y2="34.3"/><line class="cls-3" x1="370.32" y1="30.4" x2="363.95" y2="30.4"/><line class="cls-5" x1="357.21" y1="37.13" x2="349.42" y2="37.13"/><rect class="cls-4" x="321.78" y="35.01" width="7.79" height="32.6"/><path class="cls-3" d="M349.42,47.05c0-2.93-4.44-5.31-9.92-5.31s-9.92,2.38-9.92,5.31"/><path class="cls-5" d="M349.42,35a9.92,9.92,0,0,0-19.84,0"/><path class="cls-5" d="M351.55,35a12,12,0,1,0-24.1,0"/><rect class="cls-3" x="336.31" y="26.5" width="6.38" height="7.79"/><line class="cls-3" x1="339.5" y1="26.5" x2="339.5" y2="34.3"/><line class="cls-3" x1="342.69" y1="30.4" x2="336.31" y2="30.4"/><line class="cls-5" x1="329.58" y1="37.13" x2="321.78" y2="37.13"/><rect class="cls-4" x="294.14" y="35.01" width="7.79" height="32.6"/><path class="cls-3" d="M321.78,47.05c0-2.93-4.44-5.31-9.92-5.31s-9.92,2.38-9.92,5.31"/><path class="cls-5" d="M321.78,35a9.92,9.92,0,1,0-19.84,0"/><path class="cls-5" d="M323.91,35a12,12,0,1,0-24.1,0"/><rect class="cls-3" x="308.67" y="26.5" width="6.38" height="7.79"/><line class="cls-3" x1="311.86" y1="26.5" x2="311.86" y2="34.3"/><line class="cls-3" x1="315.05" y1="30.4" x2="308.67" y2="30.4"/><line class="cls-5" x1="301.94" y1="37.13" x2="294.14" y2="37.13"/><rect class="cls-4" x="266.51" y="35.01" width="7.79" height="32.6"/><path class="cls-3" d="M294.14,47.05c0-2.93-4.44-5.31-9.92-5.31s-9.92,2.38-9.92,5.31"/><path class="cls-5" d="M294.14,35a9.92,9.92,0,1,0-19.84,0"/><path class="cls-5" d="M296.27,35a12,12,0,1,0-24.09,0"/><rect class="cls-3" x="281.03" y="26.5" width="6.38" height="7.79"/><line class="cls-3" x1="284.22" y1="26.5" x2="284.22" y2="34.3"/><line class="cls-3" x1="287.41" y1="30.4" x2="281.03" y2="30.4"/><line class="cls-5" x1="274.3" y1="37.13" x2="266.51" y2="37.13"/><rect class="cls-4" x="238.87" y="35.01" width="7.79" height="32.6"/><path class="cls-3" d="M266.51,47.05c0-2.93-4.45-5.31-9.93-5.31s-9.92,2.38-9.92,5.31"/><path class="cls-5" d="M266.51,35a9.93,9.93,0,0,0-19.85,0"/><path class="cls-5" d="M268.63,35a12,12,0,1,0-24.09,0"/><rect class="cls-3" x="253.39" y="26.5" width="6.38" height="7.79"/><line class="cls-3" x1="256.58" y1="26.5" x2="256.58" y2="34.3"/><line class="cls-3" x1="259.77" y1="30.4" x2="253.39" y2="30.4"/><line class="cls-5" x1="246.66" y1="37.13" x2="238.87" y2="37.13"/><rect class="cls-4" x="201.31" y="35.01" width="7.79" height="32.6"/><path class="cls-3" d="M238.87,47.05c0-2.93-6.66-5.31-14.88-5.31s-14.88,2.38-14.88,5.31"/><path class="cls-5" d="M238.87,35c0-5.48-6.66-9.92-14.89-9.92S209.1,29.53,209.1,35"/><path class="cls-5" d="M241,35c0-6.65-7.61-12-17-12s-17,5.4-17,12"/><line class="cls-5" x1="209.1" y1="37.13" x2="201.31" y2="37.13"/><rect class="cls-4" x="173.67" y="35.01" width="7.79" height="32.6"/><path class="cls-3" d="M201.31,47.05c0-2.93-4.44-5.31-9.92-5.31s-9.92,2.38-9.92,5.31"/><path class="cls-5" d="M201.31,35a9.92,9.92,0,0,0-19.84,0"/><path class="cls-5" d="M203.44,35a12.05,12.05,0,0,0-24.1,0"/><rect class="cls-3" x="188.2" y="26.5" width="6.38" height="7.79"/><line class="cls-3" x1="191.39" y1="26.5" x2="191.39" y2="34.3"/><line class="cls-3" x1="194.58" y1="30.4" x2="188.2" y2="30.4"/><line class="cls-5" x1="181.47" y1="37.13" x2="173.67" y2="37.13"/><rect class="cls-4" x="146.03" y="35.01" width="7.79" height="32.6"/><path class="cls-3" d="M173.67,47.05c0-2.93-4.44-5.31-9.92-5.31s-9.92,2.38-9.92,5.31"/><path class="cls-5" d="M173.67,35a9.92,9.92,0,1,0-19.84,0"/><path class="cls-5" d="M175.8,35a12,12,0,0,0-24.1,0"/><rect class="cls-3" x="160.56" y="26.5" width="6.38" height="7.79"/><line class="cls-3" x1="163.75" y1="26.5" x2="163.75" y2="34.3"/><line class="cls-3" x1="166.94" y1="30.4" x2="160.56" y2="30.4"/><line class="cls-5" x1="153.83" y1="37.13" x2="146.03" y2="37.13"/><rect class="cls-4" x="118.4" y="35.01" width="7.79" height="32.6"/><path class="cls-3" d="M146,47.05c0-2.93-4.45-5.31-9.93-5.31s-9.92,2.38-9.92,5.31"/><path class="cls-5" d="M146,35a9.93,9.93,0,0,0-19.85,0"/><path class="cls-5" d="M148.16,35a12,12,0,1,0-24.09,0"/><rect class="cls-3" x="132.92" y="26.5" width="6.38" height="7.79"/><line class="cls-3" x1="136.11" y1="26.5" x2="136.11" y2="34.3"/><line class="cls-3" x1="139.3" y1="30.4" x2="132.92" y2="30.4"/><line class="cls-5" x1="126.19" y1="37.13" x2="118.4" y2="37.13"/><rect class="cls-4" x="90.76" y="35.01" width="7.79" height="32.6"/><path class="cls-3" d="M118.4,47.05c0-2.93-4.44-5.31-9.93-5.31s-9.92,2.38-9.92,5.31"/><path class="cls-5" d="M118.4,35a9.93,9.93,0,0,0-19.85,0"/><path class="cls-5" d="M120.52,35a12,12,0,1,0-24.09,0"/><rect class="cls-3" x="105.29" y="26.5" width="6.38" height="7.79"/><line class="cls-3" x1="108.47" y1="26.5" x2="108.47" y2="34.3"/><line class="cls-3" x1="111.66" y1="30.4" x2="105.29" y2="30.4"/><line class="cls-5" x1="98.55" y1="37.13" x2="90.76" y2="37.13"/><rect class="cls-4" x="63.12" y="35.01" width="7.79" height="32.6"/><path class="cls-3" d="M90.76,47.05c0-2.93-4.44-5.31-9.92-5.31s-9.92,2.38-9.92,5.31"/><path class="cls-5" d="M90.76,35a9.92,9.92,0,0,0-19.84,0"/><path class="cls-5" d="M92.88,35a12,12,0,1,0-24.09,0"/><rect class="cls-3" x="77.65" y="26.5" width="6.38" height="7.79"/><line class="cls-3" x1="80.84" y1="26.5" x2="80.84" y2="34.3"/><line class="cls-3" x1="84.03" y1="30.4" x2="77.65" y2="30.4"/><line class="cls-5" x1="70.92" y1="37.13" x2="63.12" y2="37.13"/><rect class="cls-4" x="35.48" y="35.01" width="7.79" height="32.6"/><path class="cls-3" d="M63.12,47.05c0-2.93-4.44-5.31-9.92-5.31s-9.92,2.38-9.92,5.31"/><path class="cls-5" d="M63.12,35a9.92,9.92,0,1,0-19.84,0"/><path class="cls-5" d="M65.25,35a12,12,0,1,0-24.1,0"/><rect class="cls-3" x="50.01" y="26.5" width="6.38" height="7.79"/><line class="cls-3" x1="53.2" y1="26.5" x2="53.2" y2="34.3"/><line class="cls-3" x1="56.39" y1="30.4" x2="50.01" y2="30.4"/><line class="cls-5" x1="43.28" y1="37.13" x2="35.48" y2="37.13"/><rect class="cls-4" x="7.84" y="35.01" width="7.79" height="32.6"/><path class="cls-3" d="M35.48,47.05c0-2.93-4.44-5.31-9.92-5.31s-9.92,2.38-9.92,5.31"/><path class="cls-5" d="M35.48,35a9.92,9.92,0,1,0-19.84,0"/><path class="cls-5" d="M37.61,35a12,12,0,0,0-24.1,0"/><rect class="cls-3" x="22.37" y="26.5" width="6.38" height="7.79"/><line class="cls-3" x1="25.56" y1="26.5" x2="25.56" y2="34.3"/><line class="cls-3" x1="28.75" y1="30.4" x2="22.37" y2="30.4"/><line class="cls-5" x1="15.64" y1="37.13" x2="7.84" y2="37.13"/><rect class="cls-5" x="4.3" y="18.71" width="3.54" height="48.9"/><rect class="cls-5" x="15.64" y="66.19" width="19.84" height="1.42"/><rect class="cls-3" x="15.64" y="64.77" width="19.84" height="1.42"/><rect class="cls-3" x="15.64" y="63.35" width="19.84" height="1.42"/><rect class="cls-3" x="15.64" y="61.94" width="19.84" height="1.42"/><rect class="cls-3" x="15.64" y="60.52" width="19.84" height="1.42"/><rect class="cls-5" x="43.28" y="66.19" width="19.84" height="1.42"/><rect class="cls-3" x="43.28" y="64.77" width="19.84" height="1.42"/><rect class="cls-3" x="43.28" y="63.35" width="19.84" height="1.42"/><rect class="cls-3" x="43.28" y="61.94" width="19.84" height="1.42"/><rect class="cls-3" x="43.28" y="60.52" width="19.84" height="1.42"/><rect class="cls-5" x="70.92" y="66.19" width="19.84" height="1.42"/><rect class="cls-3" x="70.92" y="64.77" width="19.84" height="1.42"/><rect class="cls-3" x="70.92" y="63.35" width="19.84" height="1.42"/><rect class="cls-3" x="70.92" y="61.94" width="19.84" height="1.42"/><rect class="cls-3" x="70.92" y="60.52" width="19.84" height="1.42"/><rect class="cls-5" x="98.55" y="66.19" width="19.84" height="1.42"/><rect class="cls-3" x="98.55" y="64.77" width="19.84" height="1.42"/><rect class="cls-3" x="98.55" y="63.35" width="19.84" height="1.42"/><rect class="cls-3" x="98.55" y="61.94" width="19.84" height="1.42"/><rect class="cls-3" x="98.55" y="60.52" width="19.84" height="1.42"/><rect class="cls-5" x="126.19" y="66.19" width="19.84" height="1.42"/><rect class="cls-3" x="126.19" y="64.77" width="19.84" height="1.42"/><rect class="cls-3" x="126.19" y="63.35" width="19.84" height="1.42"/><rect class="cls-3" x="126.19" y="61.94" width="19.84" height="1.42"/><rect class="cls-3" x="126.19" y="60.52" width="19.84" height="1.42"/><rect class="cls-5" x="153.83" y="66.19" width="19.84" height="1.42"/><rect class="cls-3" x="153.83" y="64.77" width="19.84" height="1.42"/><rect class="cls-3" x="153.83" y="63.35" width="19.84" height="1.42"/><rect class="cls-3" x="153.83" y="61.94" width="19.84" height="1.42"/><rect class="cls-3" x="153.83" y="60.52" width="19.84" height="1.42"/><rect class="cls-5" x="181.47" y="66.19" width="19.84" height="1.42"/><rect class="cls-3" x="181.47" y="64.77" width="19.84" height="1.42"/><rect class="cls-3" x="181.47" y="63.35" width="19.84" height="1.42"/><rect class="cls-3" x="181.47" y="61.94" width="19.84" height="1.42"/><rect class="cls-3" x="181.47" y="60.52" width="19.84" height="1.42"/><rect class="cls-5" x="246.66" y="66.19" width="19.84" height="1.42"/><rect class="cls-3" x="246.66" y="64.77" width="19.84" height="1.42"/><rect class="cls-3" x="246.66" y="63.35" width="19.84" height="1.42"/><rect class="cls-3" x="246.66" y="61.94" width="19.84" height="1.42"/><rect class="cls-3" x="246.66" y="60.52" width="19.84" height="1.42"/><rect class="cls-5" x="274.3" y="66.19" width="19.84" height="1.42"/><rect class="cls-3" x="274.3" y="64.77" width="19.84" height="1.42"/><rect class="cls-3" x="274.3" y="63.35" width="19.84" height="1.42"/><rect class="cls-3" x="274.3" y="61.94" width="19.84" height="1.42"/><rect class="cls-3" x="274.3" y="60.52" width="19.84" height="1.42"/><rect class="cls-5" x="301.94" y="66.19" width="19.84" height="1.42"/><rect class="cls-3" x="301.94" y="64.77" width="19.84" height="1.42"/><rect class="cls-3" x="301.94" y="63.35" width="19.84" height="1.42"/><rect class="cls-3" x="301.94" y="61.94" width="19.84" height="1.42"/><rect class="cls-3" x="301.94" y="60.52" width="19.84" height="1.42"/><rect class="cls-5" x="329.58" y="66.19" width="19.84" height="1.42"/><rect class="cls-3" x="329.58" y="64.77" width="19.84" height="1.42"/><rect class="cls-3" x="329.58" y="63.35" width="19.84" height="1.42"/><rect class="cls-3" x="329.58" y="61.94" width="19.84" height="1.42"/><rect class="cls-3" x="329.58" y="60.52" width="19.84" height="1.42"/><rect class="cls-5" x="357.21" y="66.19" width="19.84" height="1.42"/><rect class="cls-3" x="357.21" y="64.77" width="19.84" height="1.42"/><rect class="cls-3" x="357.21" y="63.35" width="19.84" height="1.42"/><rect class="cls-3" x="357.21" y="61.94" width="19.84" height="1.42"/><rect class="cls-3" x="357.21" y="60.52" width="19.84" height="1.42"/><rect class="cls-5" x="384.85" y="66.19" width="19.84" height="1.42"/><rect class="cls-3" x="384.85" y="64.77" width="19.84" height="1.42"/><rect class="cls-3" x="384.85" y="63.35" width="19.84" height="1.42"/><rect class="cls-3" x="384.85" y="61.94" width="19.84" height="1.42"/><rect class="cls-3" x="384.85" y="60.52" width="19.84" height="1.42"/><rect class="cls-5" x="412.49" y="66.19" width="19.84" height="1.42"/><rect class="cls-3" x="412.49" y="64.77" width="19.84" height="1.42"/><rect class="cls-3" x="412.49" y="63.35" width="19.84" height="1.42"/><rect class="cls-3" x="412.49" y="61.94" width="19.84" height="1.42"/><rect class="cls-3" x="412.49" y="60.52" width="19.84" height="1.42"/><path class="cls-6" d="M62.83,86.6h1a7.35,7.35,0,0,1,1.14.12,8.48,8.48,0,0,0,1.23.09,6.56,6.56,0,0,0,1.08-.09,9.38,9.38,0,0,1,1.29-.12h1v.84h-.63c-1.65,0-1.65,2.13-1.65,4.44v3.78a42.37,42.37,0,0,0,12.72,0V91.88c0-2.31,0-4.44-1.65-4.44h-.63V86.6h1a9.38,9.38,0,0,1,1.29.12,6.56,6.56,0,0,0,1.08.09,8.48,8.48,0,0,0,1.23-.09,7.35,7.35,0,0,1,1.14-.12h1v.84H83.8c-1.71,0-1.56,2.13-1.56,4.44v9.63c0,1.59-.09,4.62,1.62,4.62h.63V107H83.38a6.61,6.61,0,0,1-1.08-.12,8.08,8.08,0,0,0-1.2-.09,7.68,7.68,0,0,0-1.17.09,6.61,6.61,0,0,1-1.08.12H77.77v-.84h.63c1.62,0,1.59-2.31,1.59-4.62V96.89c-1.68.12-4.41.27-6.36.27S69,97,67.27,96.89v4.62c0,2.31,0,4.62,1.59,4.62h.63V107H68.41a6.61,6.61,0,0,1-1.08-.12,7.68,7.68,0,0,0-1.17-.09,8.08,8.08,0,0,0-1.2.09,6.61,6.61,0,0,1-1.08.12H62.77v-.84h.63c1.71,0,1.62-3,1.62-4.62V91.88c0-2.31.15-4.44-1.56-4.44h-.63Z"/><path class="cls-6" d="M110.41,107c-1.14,0-1.26-.21-2.22-.21a10.71,10.71,0,0,0-1.38.12c-.3,0-.63.09-.93.09H104.8v-.84h.6c1.59,0,1.62-2.4,1.62-4.65V95a23.49,23.49,0,0,1,.36-5.16l-.15-.09a52.64,52.64,0,0,1-5.85,7.65c-3,3.57-4.41,5.4-8.67,9.81l-1.2.18c.09-1.86.12-3.21.12-5.07V91.46c0-1.92.18-4-1.53-4h-.63V86.6h.9a8.6,8.6,0,0,1,1.23.15,7.26,7.26,0,0,0,1.14.06,6.89,6.89,0,0,0,1.11-.06,9,9,0,0,1,1.26-.15h1v.84h-.63c-1.65,0-1.59,2.13-1.59,4v7.68c0,1.2-.18,4-.27,5.28h.21c3-3.84,4.5-5.37,6.36-7.59,2.07-2.43,6.09-7.65,8.19-10.44l1-.21c-.12,2.76-.12,3.51-.12,4v11.49c0,2.1-.33,4.47,1.59,4.47h.63V107Z"/><path class="cls-6" d="M116.6,106.13h.63c1.86,0,1.56-3.51,1.56-5.4V91.91c0-1.68.21-4.47-1.56-4.47h-.63V86.6h1a9,9,0,0,1,1.26.12,6.56,6.56,0,0,0,1.08.09,7.3,7.3,0,0,0,1.14-.09,9,9,0,0,1,1.26-.12h1v.84h-.63c-1.65,0-1.65,2.13-1.65,4.47v8.82c0,1.89-.3,5.4,1.65,5.4h.63V107h-1.08a5.25,5.25,0,0,1-1-.12,8.86,8.86,0,0,0-2.52,0,6.26,6.26,0,0,1-1.05.12H116.6ZM129,86.6a11.33,11.33,0,0,1,1.41.18c.39,0,.75,0,1.14,0a5.8,5.8,0,0,0,1,0,5.57,5.57,0,0,1,1-.18h.75v.84h-.48c-1.74,0-2.94,1.44-5,3.36l-5.28,4.92c2.25.66,4.71,3.9,5.94,5.52,1.86,2.46,2.31,3.36,2.94,4a2.86,2.86,0,0,0,1.92.93,4.54,4.54,0,0,0,.78-.06v.63a4.25,4.25,0,0,1-1.77.42c-2.52,0-4.08-2.22-5.82-4.44a61.69,61.69,0,0,0-5.85-6.48c6.45-6.18,7.62-7.38,7.62-8.07a.73.73,0,0,0-.75-.72H128V86.6Z"/><path class="cls-6" d="M147.53,86.18c6.09,0,9.75,5.4,9.75,10.53,0,6.12-4.14,10.68-9.54,10.68-7.14,0-10.77-5.61-10.77-10.92C137,90.74,141,86.18,147.53,86.18Zm.21,20.25c4.71,0,6.84-4.05,6.84-8.55,0-6-3.24-10.74-7.68-10.74-3.3,0-7.23,2-7.23,8.94C139.67,101.39,142.67,106.43,147.74,106.43Z"/><path class="cls-6" d="M169.84,86.18c2.67,8.76,3.66,10.65,5.4,15.51.66,1.83,1.59,4.44,3.18,4.44H179V107h-.84a12.14,12.14,0,0,1-1.47-.12,11.12,11.12,0,0,0-1.41-.09,10.2,10.2,0,0,0-1.35.09,7.35,7.35,0,0,1-1.14.12h-1v-.84h.45c2.19,0,1.65-1.74-.09-6.36a83.55,83.55,0,0,1-3.18-10h-.15A37.61,37.61,0,0,1,167,96.53c-1.77,5.4-2.22,6.72-2.43,8.16-.09.63-.12,1.44,1.11,1.44h.66V107h-1.05a7.74,7.74,0,0,1-1.17-.12,10.2,10.2,0,0,0-1.35-.09,9.76,9.76,0,0,0-1.32.09,8.54,8.54,0,0,1-1.23.12h-.84v-.84h.72a2.79,2.79,0,0,0,2.43-1.89,61.52,61.52,0,0,0,3-7.8,102.81,102.81,0,0,0,3.18-10Z"/><path class="cls-6" d="M183.44,86.6h1.11a9,9,0,0,1,1.26.12,7.68,7.68,0,0,0,1.17.09c.33,0,.69-.06,1-.09a9.38,9.38,0,0,1,1.29-.12h1v.84h-.63c-1.77,0-1.71,2-1.71,4.38v4.11a16.57,16.57,0,0,1,3-.27c4.14,0,7.05,1.89,7.05,5.28a6.05,6.05,0,0,1-4.2,5.88,8.05,8.05,0,0,1-2.55.33,15.47,15.47,0,0,1-2.37-.24,10.78,10.78,0,0,0-1.38-.15c-1.29,0-1.5.21-2.79.21h-1.26v-.84h.48c1.59,0,1.8-2.67,1.8-5V92.42c0-2.43.21-5-1.62-5h-.63Zm4.5,16c0,1.8-.09,3.63,2.91,3.63a4.74,4.74,0,0,0,2-.3,4,4,0,0,0,2.43-4c0-2.46-1-5.31-5.58-5.31a16.86,16.86,0,0,0-1.74.06Z"/><path class="cls-6" d="M219.57,91.91c0-1.53-.66-4.62-5.22-4.62a10.21,10.21,0,0,0-5,1.14A8.24,8.24,0,0,0,205.11,96c0,7,4.8,10.35,9.15,10.35a6.87,6.87,0,0,0,6.21-3.75h1c-1.32,2.94-1.53,3.78-5.1,4.56a11,11,0,0,1-2.22.27c-6.57,0-11.73-4.47-11.73-10.65a10.43,10.43,0,0,1,7.41-10,14.83,14.83,0,0,1,4.32-.51,21.21,21.21,0,0,1,4,.48,5.45,5.45,0,0,0,2.58-.06c-.12,1.14-.24,3.51-.24,4.74,0,.18,0,.39,0,.57Z"/><path class="cls-6" d="M225.61,106.13h.63c1.86,0,1.56-3.51,1.56-5.4V91.91c0-1.68.21-4.47-1.56-4.47h-.63V86.6h1a9,9,0,0,1,1.26.12,6.56,6.56,0,0,0,1.08.09,7.3,7.3,0,0,0,1.14-.09,9,9,0,0,1,1.26-.12h1v.84h-.63c-1.65,0-1.65,2.13-1.65,4.47v8.82c0,1.89-.3,5.4,1.65,5.4h.63V107h-1.08a5.25,5.25,0,0,1-1-.12,8.87,8.87,0,0,0-2.52,0,6.26,6.26,0,0,1-1.05.12h-1.11ZM238,86.6a11.33,11.33,0,0,1,1.41.18c.39,0,.75,0,1.14,0a5.8,5.8,0,0,0,1,0,5.57,5.57,0,0,1,1-.18h.75v.84h-.48c-1.74,0-2.94,1.44-5,3.36l-5.28,4.92c2.25.66,4.71,3.9,5.94,5.52,1.86,2.46,2.31,3.36,2.94,4a2.86,2.86,0,0,0,1.92.93,4.54,4.54,0,0,0,.78-.06v.63a4.25,4.25,0,0,1-1.77.42c-2.52,0-4.08-2.22-5.82-4.44a61.69,61.69,0,0,0-5.85-6.48c6.45-6.18,7.62-7.38,7.62-8.07a.73.73,0,0,0-.75-.72H237V86.6Z"/><path class="cls-6" d="M269.13,107c-1.14,0-1.26-.21-2.22-.21a10.71,10.71,0,0,0-1.38.12c-.3,0-.63.09-.93.09h-1.08v-.84h.6c1.59,0,1.62-2.4,1.62-4.65V95a23.49,23.49,0,0,1,.36-5.16l-.15-.09a52.64,52.64,0,0,1-5.85,7.65c-3,3.57-4.41,5.4-8.67,9.81l-1.2.18c.09-1.86.12-3.21.12-5.07V91.46c0-1.92.18-4-1.53-4h-.63V86.6h.9a8.6,8.6,0,0,1,1.23.15,7.26,7.26,0,0,0,1.14.06,6.89,6.89,0,0,0,1.11-.06,9,9,0,0,1,1.26-.15h1v.84h-.63c-1.65,0-1.59,2.13-1.59,4v7.68c0,1.2-.18,4-.27,5.28h.21c3-3.84,4.5-5.37,6.36-7.59,2.07-2.43,6.09-7.65,8.19-10.44l1-.21c-.12,2.76-.12,3.51-.12,4v11.49c0,2.1-.33,4.47,1.59,4.47h.63V107Z"/><path class="cls-6" d="M277.6,91.85c0-1.74.18-4.41-1.62-4.41h-.66V86.6a59.9,59.9,0,0,0,6,.21c2.46,0,4,0,6.45-.21a34.45,34.45,0,0,1-1.08,5h-1a6.39,6.39,0,0,0,.24-1.65c0-.84-.12-1.86-2.4-1.86H280c-.12,1.59-.18,3.06-.18,4.47v3.27l1.86.09,1.92,0c1.14,0,2-.33,2.1-2.37h.81a31.61,31.61,0,0,0-.42,6.18h-.84c.21-1.74-.12-2.79-1.65-2.79h-1.89l-1.89.12v4.86c0,3.9.93,4.23,3.09,4.23,2.55,0,4.29-.33,5.13-3.57h1c-.93,4.65-1.83,4.65-3.24,4.65-1,0-1.95-.06-2.91-.12s-1.62-.09-2.43-.15l-1-.09A26.55,26.55,0,0,0,276,107h-.72v-.84h.9c1.38,0,1.38-2.58,1.38-4.29Z"/><path class="cls-6" d="M310,107a6.26,6.26,0,0,1-1.05-.12,8.08,8.08,0,0,0-1.2-.09,9.32,9.32,0,0,0-1.29.09,5.58,5.58,0,0,1-1,.12h-1.11v-.84H305c1.62,0,1.59-2.82,1.59-4.89V92.15c0-3.15.21-4.86-2.22-4.71V86.6c1.26.12,2,.21,2.67.21,1.89,0,1.2-.21,4.47-.21,4.35,0,6.3,2.76,6.3,5.85a5.92,5.92,0,0,1-6,5.85,5.5,5.5,0,0,1-1.38-.15V97.4a5.67,5.67,0,0,0,1.23.09c2.1,0,3.84-2.16,3.84-4.92,0-3.3-2.43-5.13-5.46-5.13a5.21,5.21,0,0,0-1.17.15v13.35c0,2.46-.12,5.19,1.62,5.19h1V107Z"/><path class="cls-6" d="M335,101.15c0,2.37,0,5,1.59,5h.72V107h-1.35c-1.44,0-1-.21-2.19-.21a7.78,7.78,0,0,0-1.17.09,5.8,5.8,0,0,1-1,.12h-1.12v-.84h.63c1.57,0,1.65-2.7,1.65-4.62V87.65c-3-.78-6.83.48-6.83,4.44a4.6,4.6,0,0,0,4.64,4.65H332v.57c-1.74.48-2.25,1.32-3.09,2.76-2.27,3.87-4.25,7.08-7.52,7.08a4.57,4.57,0,0,1-1.26-.18v-.84a5.31,5.31,0,0,0,.69,0c2.16,0,2.58-1.71,4.85-5.28,1-1.59,1.92-2.85,4-3.3v-.27c-4.31-.21-6.09-2.31-6.09-5.1,0-3.54,2.83-5.61,6.66-5.61,1.23,0,2.13.21,3.75.21a19.1,19.1,0,0,0,3.39-.21v.84C334.74,87.29,335,88.85,335,92Z"/><path class="cls-6" d="M339.73,111.44a31.25,31.25,0,0,0,1-6.12,10.57,10.57,0,0,0,1.92.27c.87,0,1-.75,2.58-5.16,1-2.61,3.81-10.86,4.56-14.28l1.53-.12a98.44,98.44,0,0,0,4,13.38c2.1,6,2.1,6.15,2.85,6.15a13.4,13.4,0,0,0,2.67-.24,38.87,38.87,0,0,1-1.26,6.12l-1.08,0a11.35,11.35,0,0,0,.28-2.13c0-2.13-1.17-2.37-2.58-2.37H345.88c-1.35,0-2.55-.06-3.39.78a10.15,10.15,0,0,0-1.68,3.72Zm10.2-22.08c-.18,2.28-3.78,12.51-5.13,16.32,1.74.09,2.76.12,4.8.12,2.43,0,3.54,0,5.43-.12a109.58,109.58,0,0,1-3.72-10.86,25.8,25.8,0,0,1-1.12-5.46Z"/><path class="cls-6" d="M363.57,86.6h1.12a8.67,8.67,0,0,1,1.25.12,7.68,7.68,0,0,0,1.17.09c.33,0,.69-.06,1-.09a9.38,9.38,0,0,1,1.29-.12h1v.84h-.63c-1.77,0-1.71,2-1.71,4.38v4.11a17.81,17.81,0,0,1,3.33-.27c4.2,0,6.75,2.28,6.75,5.25s-2.34,6.24-6.81,6.24a15.47,15.47,0,0,1-2.37-.24,10.59,10.59,0,0,0-1.38-.15c-1.29,0-1.5.21-2.79.21h-1.26v-.84H364c1.58,0,1.79-2.67,1.79-5V92.42c0-2.43.21-5-1.62-5h-.63Zm4.5,16c0,1.86-.06,3.63,3.27,3.63,2.7,0,4.05-2.1,4.05-4.71a4.85,4.85,0,0,0-.75-2.67,5.5,5.5,0,0,0-4.82-2.19,17,17,0,0,0-1.75.06Zm12.18,3.57h.63c1.86,0,1.56-3.51,1.56-5.4V91.91c0-1.68.21-4.47-1.56-4.47h-.63V86.6h1a9,9,0,0,1,1.26.12,6.56,6.56,0,0,0,1.08.09,7.3,7.3,0,0,0,1.14-.09A9,9,0,0,1,386,86.6h1v.84h-.63c-1.65,0-1.65,2.13-1.65,4.47v8.82c0,1.89-.3,5.4,1.65,5.4H387V107h-1.08a5.25,5.25,0,0,1-1-.12,8.87,8.87,0,0,0-2.52,0,6.26,6.26,0,0,1-1.05.12h-1.11Z"/></g></g></svg>