<?xml version="1.0" encoding="utf-8"?>
<!-- Generator: Adobe Illustrator 17.0.0, SVG Export Plug-In . SVG Version: 6.00 Build 0)  -->
<!DOCTYPE svg PUBLIC "-//W3C//DTD SVG 1.1//EN" "http://www.w3.org/Graphics/SVG/1.1/DTD/svg11.dtd">
<svg version="1.1" id="Layer_1" xmlns="http://www.w3.org/2000/svg" xmlns:xlink="http://www.w3.org/1999/xlink" x="0px" y="0px"
	 width="308.621px" height="54.393px" viewBox="0 0 308.621 54.393" enable-background="new 0 0 308.621 54.393"
	 xml:space="preserve">
<g>
	<path fill="#786E62" d="M171.945,31.671l-0.168,0.376c-1.596,3.511-4.712,5.434-8.803,5.434c-4.26,0-7.573-2.168-9.046-5.958
		c-0.451-1.108-0.686-2.328-0.751-3.624h21.678v-0.627c0.008-3.501-1.202-6.674-3.435-8.906c-2.168-2.179-5.086-3.342-8.446-3.342
		c-5.172,0-9.197,2.665-11.017,7.302c-0.601,1.473-0.901,3.143-0.901,4.946c0,1.849,0.3,3.518,0.901,5.011
		c1.82,4.635,5.845,7.291,11.017,7.291c5.048,0,9.008-2.562,10.849-7.038l0.346-0.865H171.945z M153.928,23.076
		c1.473-3.791,4.786-5.949,9.046-5.949c5.255,0,9.085,3.471,9.723,8.717h-19.482C153.336,24.859,153.581,23.929,153.928,23.076"/>
	<polygon fill="#786E62" points="195.755,15.108 193.098,15.108 185.234,25.16 177.352,15.108 174.705,15.108 183.882,26.896 
		174.159,39.405 176.845,39.405 185.234,28.594 193.661,39.405 196.288,39.405 186.567,26.896 	"/>
	<path fill="#786E62" d="M210.403,14.931c-4.278,0-7.798,1.924-9.816,5.282v-5.104h-2.084v31.035h2.104l-0.038-11.703
		c1.98,3.238,5.471,5.096,9.834,5.096c5.181,0,9.187-2.656,11.027-7.302c1.21-3.114,1.21-6.841,0-9.965
		C219.589,17.616,215.564,14.931,210.403,14.931 M219.449,31.485c-1.483,3.773-4.775,5.95-9.046,5.95
		c-4.26,0-7.563-2.177-9.046-5.95c-1.052-2.703-1.052-5.771,0-8.446c1.483-3.791,4.786-5.959,9.046-5.959
		c4.271,0,7.563,2.168,9.046,5.959C220.499,25.713,220.499,28.782,219.449,31.485"/>
	<path fill="#786E62" d="M240.021,15.888l-0.395-0.15c-4.393-1.538-8.643-0.413-10.971,2.561v-3.19h-2.092V39.48h2.092v-15.24
		c0.085-4.158,2.975-7.076,7.01-7.114c1.165,0,2.365,0.235,3.511,0.676l0.845,0.338V15.888z"/>
	<path fill="#786E62" d="M251.78,15.024c-5.171,0-9.189,2.666-11.028,7.301c-0.582,1.474-0.892,3.143-0.892,4.947
		c0,1.848,0.31,3.517,0.892,5.011c1.839,4.635,5.865,7.291,11.028,7.291c5.058,0,9.009-2.563,10.838-7.038l0.356-0.865h-2.214
		l-0.168,0.376c-1.615,3.511-4.722,5.434-8.812,5.434c-4.271,0-7.566-2.168-9.048-5.959c-0.442-1.107-0.685-2.327-0.75-3.623h21.668
		v-0.627c0.019-3.501-1.201-6.674-3.397-8.907C258.066,16.187,255.147,15.024,251.78,15.024 M242.019,25.844
		c0.12-0.985,0.375-1.915,0.713-2.767c1.482-3.791,4.777-5.95,9.048-5.95c5.254,0,9.092,3.472,9.712,8.718H242.019z"/>
	<path fill="#786E62" d="M275.943,25.807c-4.484-0.527-7.415-1.079-7.415-4.026c0-2.853,2.526-3.998,4.037-4.42
		c1.708-0.516,4.054-0.572,6.241,0.047c1.285,0.366,4.288,1.547,4.288,4.458v0.619h2.102v-0.619c0-3.003-2.177-5.444-5.828-6.522
		c-2.563-0.695-5.434-0.61-7.403,0c-3.492,0.985-5.576,3.397-5.576,6.437c0,4.937,4.909,5.555,9.358,6.118
		c4.748,0.582,7.854,1.201,7.854,4.505c0,3.098-2.966,4.299-4.261,4.665c-0.937,0.31-1.942,0.459-2.909,0.459l-0.347-0.019
		c-1.154,0-2.318-0.16-3.351-0.468c-1.388-0.442-4.625-1.794-4.625-5.332V31.09h-2.094v0.619c0,3.454,2.309,6.204,6.128,7.331
		c1.192,0.375,2.534,0.591,3.885,0.591h0.404c1.192,0,2.403-0.179,3.501-0.498c3.66-1.079,5.771-3.538,5.771-6.729
		C285.704,26.981,280.534,26.372,275.943,25.807"/>
	<path fill="#786E62" d="M298.879,25.807c-4.496-0.527-7.433-1.079-7.433-4.026c0-2.853,2.525-3.998,4.035-4.42
		c1.718-0.516,4.055-0.591,6.252,0.047c1.284,0.366,4.288,1.547,4.288,4.458v0.619h2.073v-0.619c0-3.003-2.139-5.444-5.818-6.522
		c-2.543-0.695-5.407-0.61-7.395,0c-3.502,0.985-5.566,3.397-5.566,6.437c0,4.937,4.909,5.555,9.348,6.118
		c4.758,0.582,7.864,1.201,7.864,4.505c0,3.098-2.955,4.299-4.251,4.665c-0.948,0.31-1.952,0.459-2.909,0.459l-0.347-0.019
		c-1.173,0-2.337-0.16-3.36-0.468c-1.398-0.442-4.647-1.794-4.647-5.332V31.09h-2.083v0.619c0,3.454,2.31,6.204,6.138,7.331
		c1.191,0.375,2.533,0.591,3.876,0.591h0.422c1.164,0,2.383-0.179,3.491-0.498c3.659-1.079,5.762-3.538,5.762-6.729
		C308.621,26.981,303.46,26.372,298.879,25.807"/>
	<path fill="#786E62" d="M28.657,23.149c-1.146-0.052-3.312-0.094-3.312-1.552c0-1.494,1.658-1.92,2.839-1.92
		c1.652,0,3.777,0.154,3.83,2.326h7.716c-0.054-6.506-5.183-9.563-11.133-9.563c-6.151,0-11.322,2.893-11.322,9.67
		c0,6.162,5.378,8.169,10.602,8.641c1.286,0.106,4.356-0.142,4.356,1.866c0,0.985-1.405,1.77-3.53,1.711
		c-1.807,0-3.719-0.779-3.778-2.645H16.85c0.107,7.143,5.077,10.147,11.707,10.147c6.103,0,11.746-2.378,11.746-9.414
		C40.302,25.787,34.44,23.303,28.657,23.149"/>
	<path fill="#786E62" d="M53.335,31.491V20.464h5.844v-6.989h-5.844v-6.05l-8.134,0.726v5.324h-3.667v6.989h3.667v11.027
		c0,8.836,5.596,11.281,14.498,9.722l-0.261-6.729C56.906,35.056,53.335,34.997,53.335,31.491"/>
	<path fill="#786E62" d="M60.997,27.194c0,19.242,28.924,19.242,28.924,0C89.921,7.891,60.997,7.891,60.997,27.194 M69.108,27.194
		c0-8.949,12.685-8.949,12.685,0C81.793,36.095,69.108,36.095,69.108,27.194"/>
	<path fill="#786E62" d="M121.465,27.574c0.041-7.715-4.563-14.856-13.453-14.856c-2.698,0-5.437,0.778-7.343,3.163v-2.437h-8.087
		v35.602h8.087V38.488c1.859,2.125,4.486,3.052,7.231,3.052C116.956,41.54,121.352,35.224,121.465,27.574 M107.026,34.026
		c-3.524,0-6.357-3.046-6.357-6.771c0-3.718,2.833-6.723,6.357-6.723c4.179,0,6.304,3.459,6.257,6.824
		C113.236,30.721,111.158,34.026,107.026,34.026"/>
	<polygon fill="#FFD100" points="117.154,0 117.154,10.46 127.613,10.46 127.613,43.932 117.154,43.932 117.154,54.393 
		127.613,54.393 138.074,54.393 138.074,43.932 138.074,10.46 138.074,0 127.613,0 	"/>
	<polygon fill="#FFD100" points="10.46,10.46 20.92,10.46 20.92,0.001 10.46,0.001 0,0.001 0,10.46 0,43.932 0,54.393 10.46,54.393 
		20.92,54.393 20.92,43.932 10.46,43.932 	"/>
</g>
</svg>
